%
M48
M72
T01C0.0130
T02C0.0200
T03C0.0394
T04C0.0400
T05C0.1250
%
T01
X1424Y3790
X2894Y4630
X3384Y4840
X4364Y4700
X5134Y4630
X5764Y4420
X6744Y4980
X6464Y5470
X6324Y6730
X5344Y6730
X4434Y6730
X4154Y7010
X2964Y7780
X3384Y8900
X3104Y9950
X4434Y10300
X5694Y7780
X6044Y7780
X7234Y9040
X7794Y9810
X8774Y10160
X9474Y10300
X8774Y11910
X10034Y8060
X10174Y7010
X10594Y5750
X9824Y4910
X7794Y4070
X7514Y3860
X7794Y6030
X7794Y6380
X4714Y3370
X3804Y2600
X4434Y5470
T02
X10154Y3940
X11154Y3940
X12154Y3940
X12154Y2940
X11154Y2940
X10154Y2940
T03
X10034Y1720
X9034Y1720
X8034Y1720
X7034Y1720
X6034Y1720
X5034Y1720
X4034Y1720
X3034Y1720
X3034Y11170
X4034Y11170
X5034Y11170
X6034Y11170
X7034Y11170
X8034Y11170
X9034Y11170
X10034Y11170
T04
X8834Y9340
X8834Y8340
X8834Y7340
X8834Y6340
X8834Y5340
X8834Y4340
X2134Y4340
X2134Y5340
X2134Y6340
X2134Y7340
X2134Y8340
X2134Y9340
T05
X1284Y1450
X1284Y11450
X11784Y11450
X11784Y1450
M30
