G75*
%MOIN*%
%OFA0B0*%
%FSLAX24Y24*%
%IPPOS*%
%LPD*%
%AMOC8*
5,1,8,0,0,1.08239X$1,22.5*
%
%ADD10C,0.1310*%
%ADD11C,0.0220*%
%ADD12OC8,0.0660*%
%ADD13R,0.0660X0.0660*%
%ADD14C,0.0660*%
%ADD15C,0.0651*%
%ADD16C,0.0330*%
D10*
X001284Y001450D03*
X001284Y011450D03*
X011784Y011450D03*
X011784Y001450D03*
D11*
X007440Y004465D02*
X007010Y004465D01*
X007010Y004780D02*
X007440Y004780D01*
X007440Y005095D02*
X007010Y005095D01*
X007010Y005410D02*
X007440Y005410D01*
X007440Y005725D02*
X007010Y005725D01*
X007010Y006040D02*
X007440Y006040D01*
X007440Y006355D02*
X007010Y006355D01*
X007010Y006670D02*
X007440Y006670D01*
X006654Y007026D02*
X006654Y007456D01*
X006339Y007456D02*
X006339Y007026D01*
X006025Y007026D02*
X006025Y007456D01*
X005710Y007456D02*
X005710Y007026D01*
X005395Y007026D02*
X005395Y007456D01*
X005080Y007456D02*
X005080Y007026D01*
X004765Y007026D02*
X004765Y007456D01*
X004450Y007456D02*
X004450Y007026D01*
X004094Y006670D02*
X003664Y006670D01*
X003664Y006355D02*
X004094Y006355D01*
X004094Y006040D02*
X003664Y006040D01*
X003664Y005725D02*
X004094Y005725D01*
X004094Y005410D02*
X003664Y005410D01*
X003664Y005095D02*
X004094Y005095D01*
X004094Y004780D02*
X003664Y004780D01*
X003664Y004465D02*
X004094Y004465D01*
X004450Y004109D02*
X004450Y003679D01*
X004765Y003679D02*
X004765Y004109D01*
X005080Y004109D02*
X005080Y003679D01*
X005395Y003679D02*
X005395Y004109D01*
X005710Y004109D02*
X005710Y003679D01*
X006025Y003679D02*
X006025Y004109D01*
X006339Y004109D02*
X006339Y003679D01*
X006654Y003679D02*
X006654Y004109D01*
D12*
X010154Y002940D03*
X011154Y002940D03*
X012154Y002940D03*
X012154Y003940D03*
X011154Y003940D03*
D13*
X010154Y003940D03*
D14*
X009134Y004340D02*
X008534Y004340D01*
X008534Y005340D02*
X009134Y005340D01*
X009134Y006340D02*
X008534Y006340D01*
X008534Y007340D02*
X009134Y007340D01*
X009134Y008340D02*
X008534Y008340D01*
X008534Y009340D02*
X009134Y009340D01*
X002434Y009340D02*
X001834Y009340D01*
X001834Y008340D02*
X002434Y008340D01*
X002434Y007340D02*
X001834Y007340D01*
X001834Y006340D02*
X002434Y006340D01*
X002434Y005340D02*
X001834Y005340D01*
X001834Y004340D02*
X002434Y004340D01*
D15*
X003034Y002015D02*
X003034Y001425D01*
X004034Y001425D02*
X004034Y002015D01*
X005034Y002015D02*
X005034Y001425D01*
X006034Y001425D02*
X006034Y002015D01*
X007034Y002015D02*
X007034Y001425D01*
X008034Y001425D02*
X008034Y002015D01*
X009034Y002015D02*
X009034Y001425D01*
X010034Y001425D02*
X010034Y002015D01*
X010034Y010875D02*
X010034Y011465D01*
X009034Y011465D02*
X009034Y010875D01*
X008034Y010875D02*
X008034Y011465D01*
X007034Y011465D02*
X007034Y010875D01*
X006034Y010875D02*
X006034Y011465D01*
X005034Y011465D02*
X005034Y010875D01*
X004034Y010875D02*
X004034Y011465D01*
X003034Y011465D02*
X003034Y010875D01*
D16*
X003104Y009950D03*
X003384Y008900D03*
X002964Y007780D03*
X004154Y007010D03*
X004434Y006730D03*
X005344Y006730D03*
X006324Y006730D03*
X006044Y007780D03*
X005694Y007780D03*
X007234Y009040D03*
X007794Y009810D03*
X008774Y010160D03*
X009474Y010300D03*
X008774Y011910D03*
X010034Y008060D03*
X010174Y007010D03*
X010594Y005750D03*
X009824Y004910D03*
X007794Y004070D03*
X007514Y003860D03*
X006744Y004980D03*
X006464Y005470D03*
X005764Y004420D03*
X005134Y004630D03*
X004364Y004700D03*
X004434Y005470D03*
X003384Y004840D03*
X002894Y004630D03*
X001424Y003790D03*
X003804Y002600D03*
X004714Y003370D03*
X007794Y006030D03*
X007794Y006380D03*
X004434Y010300D03*
M02*
