G75*
%MOIN*%
%OFA0B0*%
%FSLAX24Y24*%
%IPPOS*%
%LPD*%
%AMOC8*
5,1,8,0,0,1.08239X$1,22.5*
%
%ADD10C,0.1310*%
%ADD11R,0.0296X0.0926*%
%ADD12R,0.0493X0.0454*%
%ADD13OC8,0.0660*%
%ADD14R,0.0660X0.0660*%
%ADD15C,0.0660*%
%ADD16C,0.0651*%
%ADD17C,0.0330*%
D10*
X001284Y001450D03*
X001284Y011450D03*
X011784Y011450D03*
X011784Y001450D03*
D11*
X007471Y006099D03*
X006971Y006099D03*
X006471Y006099D03*
X005971Y006099D03*
X005471Y006099D03*
X004971Y006099D03*
X004471Y006099D03*
X003971Y006099D03*
X003471Y006099D03*
X003471Y009646D03*
X003971Y009646D03*
X004471Y009646D03*
X004971Y009646D03*
X005471Y009646D03*
X005971Y009646D03*
X006471Y009646D03*
X006971Y009646D03*
X007471Y009646D03*
D12*
X009882Y006034D03*
X009882Y005365D03*
X005842Y005033D03*
X005173Y005033D03*
D13*
X010154Y002940D03*
X011154Y002940D03*
X012154Y002940D03*
X012154Y003940D03*
X011154Y003940D03*
D14*
X010154Y003940D03*
D15*
X009134Y004340D02*
X008534Y004340D01*
X008534Y005340D02*
X009134Y005340D01*
X009134Y006340D02*
X008534Y006340D01*
X008534Y007340D02*
X009134Y007340D01*
X009134Y008340D02*
X008534Y008340D01*
X008534Y009340D02*
X009134Y009340D01*
X002434Y009340D02*
X001834Y009340D01*
X001834Y008340D02*
X002434Y008340D01*
X002434Y007340D02*
X001834Y007340D01*
X001834Y006340D02*
X002434Y006340D01*
X002434Y005340D02*
X001834Y005340D01*
X001834Y004340D02*
X002434Y004340D01*
D16*
X003034Y002015D02*
X003034Y001425D01*
X004034Y001425D02*
X004034Y002015D01*
X005034Y002015D02*
X005034Y001425D01*
X006034Y001425D02*
X006034Y002015D01*
X007034Y002015D02*
X007034Y001425D01*
X008034Y001425D02*
X008034Y002015D01*
X009034Y002015D02*
X009034Y001425D01*
X010034Y001425D02*
X010034Y002015D01*
X010034Y010875D02*
X010034Y011465D01*
X009034Y011465D02*
X009034Y010875D01*
X008034Y010875D02*
X008034Y011465D01*
X007034Y011465D02*
X007034Y010875D01*
X006034Y010875D02*
X006034Y011465D01*
X005034Y011465D02*
X005034Y010875D01*
X004034Y010875D02*
X004034Y011465D01*
X003034Y011465D02*
X003034Y010875D01*
D17*
X003104Y009950D03*
X003384Y008900D03*
X002964Y007780D03*
X004154Y007010D03*
X004434Y006730D03*
X005344Y006730D03*
X006324Y006730D03*
X006044Y007780D03*
X005694Y007780D03*
X007234Y009040D03*
X007794Y009810D03*
X008774Y010160D03*
X009474Y010300D03*
X008774Y011910D03*
X010034Y008060D03*
X010174Y007010D03*
X010594Y005750D03*
X009824Y004910D03*
X007794Y004070D03*
X007514Y003860D03*
X006744Y004980D03*
X006464Y005470D03*
X005764Y004420D03*
X005134Y004630D03*
X004364Y004700D03*
X004434Y005470D03*
X003384Y004840D03*
X002894Y004630D03*
X001424Y003790D03*
X003804Y002600D03*
X004714Y003370D03*
X007794Y006030D03*
X007794Y006380D03*
X004434Y010300D03*
M02*
