G75*
%MOIN*%
%OFA0B0*%
%FSLAX24Y24*%
%IPPOS*%
%LPD*%
%AMOC8*
5,1,8,0,0,1.08239X$1,22.5*
%
%ADD10C,0.0040*%
%ADD11C,0.0030*%
%ADD12C,0.0050*%
D10*
X003804Y000420D02*
X003804Y000880D01*
X003957Y000727D01*
X004111Y000880D01*
X004111Y000420D01*
X004264Y000420D02*
X004264Y000727D01*
X004418Y000880D01*
X004571Y000727D01*
X004571Y000420D01*
X004571Y000650D02*
X004264Y000650D01*
X004725Y000880D02*
X005032Y000880D01*
X004878Y000880D02*
X004878Y000420D01*
X005185Y000420D02*
X005185Y000880D01*
X005415Y000880D01*
X005492Y000804D01*
X005492Y000650D01*
X005415Y000573D01*
X005185Y000573D01*
X005339Y000573D02*
X005492Y000420D01*
X005646Y000420D02*
X005799Y000420D01*
X005722Y000420D02*
X005722Y000880D01*
X005646Y000880D02*
X005799Y000880D01*
X005952Y000880D02*
X006259Y000420D01*
X005952Y000420D02*
X006259Y000880D01*
X006873Y000880D02*
X006873Y000420D01*
X007103Y000420D01*
X007180Y000497D01*
X007180Y000573D01*
X007103Y000650D01*
X006873Y000650D01*
X006873Y000880D02*
X007103Y000880D01*
X007180Y000804D01*
X007180Y000727D01*
X007103Y000650D01*
X007334Y000497D02*
X007410Y000420D01*
X007564Y000420D01*
X007641Y000497D01*
X007641Y000804D01*
X007564Y000880D01*
X007410Y000880D01*
X007334Y000804D01*
X007334Y000497D01*
X007794Y000880D02*
X008101Y000880D01*
X008254Y000880D02*
X008561Y000880D01*
X008408Y000880D02*
X008408Y000420D01*
X008715Y000497D02*
X008792Y000420D01*
X008945Y000420D01*
X009022Y000497D01*
X009022Y000804D01*
X008945Y000880D01*
X008792Y000880D01*
X008715Y000804D01*
X008715Y000497D01*
X009175Y000420D02*
X009175Y000880D01*
X009329Y000727D01*
X009482Y000880D01*
X009482Y000420D01*
X007948Y000420D02*
X007948Y000880D01*
X004189Y007338D02*
X003882Y007338D01*
X004036Y007338D02*
X004036Y007798D01*
X003882Y007645D01*
X003729Y007798D02*
X003729Y007414D01*
X003652Y007338D01*
X003499Y007338D01*
X003422Y007414D01*
X003422Y007798D01*
X003804Y012020D02*
X003804Y012480D01*
X003957Y012327D01*
X004111Y012480D01*
X004111Y012020D01*
X004264Y012020D02*
X004264Y012327D01*
X004418Y012480D01*
X004571Y012327D01*
X004571Y012020D01*
X004571Y012250D02*
X004264Y012250D01*
X004725Y012480D02*
X005032Y012480D01*
X004878Y012480D02*
X004878Y012020D01*
X005185Y012020D02*
X005185Y012480D01*
X005415Y012480D01*
X005492Y012404D01*
X005492Y012250D01*
X005415Y012173D01*
X005185Y012173D01*
X005339Y012173D02*
X005492Y012020D01*
X005646Y012020D02*
X005799Y012020D01*
X005722Y012020D02*
X005722Y012480D01*
X005646Y012480D02*
X005799Y012480D01*
X005952Y012480D02*
X006259Y012020D01*
X005952Y012020D02*
X006259Y012480D01*
X006873Y012480D02*
X007180Y012480D01*
X007027Y012480D02*
X007027Y012020D01*
X007334Y012097D02*
X007410Y012020D01*
X007564Y012020D01*
X007641Y012097D01*
X007641Y012404D01*
X007564Y012480D01*
X007410Y012480D01*
X007334Y012404D01*
X007334Y012097D01*
X007794Y012173D02*
X008024Y012173D01*
X008101Y012250D01*
X008101Y012404D01*
X008024Y012480D01*
X007794Y012480D01*
X007794Y012020D01*
D11*
X001799Y000562D02*
X001799Y000315D01*
X001799Y000500D02*
X002046Y000500D01*
X002046Y000562D02*
X002046Y000315D01*
X002167Y000315D02*
X002414Y000562D01*
X002414Y000624D01*
X002352Y000685D01*
X002229Y000685D01*
X002167Y000624D01*
X002046Y000562D02*
X001922Y000685D01*
X001799Y000562D01*
X002167Y000315D02*
X002414Y000315D01*
X004417Y008218D02*
X004417Y008508D01*
X004562Y008508D01*
X004610Y008460D01*
X004610Y008363D01*
X004562Y008315D01*
X004417Y008315D01*
X004316Y008363D02*
X004267Y008412D01*
X004171Y008412D01*
X004122Y008460D01*
X004171Y008508D01*
X004316Y008508D01*
X004316Y008363D02*
X004267Y008315D01*
X004122Y008315D01*
X004021Y008315D02*
X003876Y008315D01*
X003828Y008363D01*
X003876Y008412D01*
X004021Y008412D01*
X004021Y008460D02*
X004021Y008315D01*
X004021Y008460D02*
X003973Y008508D01*
X003876Y008508D01*
X003726Y008557D02*
X003726Y008460D01*
X003678Y008412D01*
X003533Y008412D01*
X003630Y008412D02*
X003726Y008315D01*
X003533Y008315D02*
X003533Y008605D01*
X003678Y008605D01*
X003726Y008557D01*
X004319Y008892D02*
X004319Y008988D01*
X004415Y009085D01*
X004515Y008940D02*
X004515Y008843D01*
X004563Y008795D01*
X004709Y008795D01*
X004810Y008795D02*
X004906Y008892D01*
X004906Y008988D01*
X004810Y009085D01*
X004709Y008988D02*
X004563Y008988D01*
X004515Y008940D01*
X004415Y008795D02*
X004319Y008892D01*
X004711Y008605D02*
X004711Y008315D01*
X004857Y008315D01*
X004905Y008363D01*
X004905Y008460D01*
X004857Y008508D01*
X004711Y008508D01*
X005006Y008460D02*
X005006Y008363D01*
X005054Y008315D01*
X005151Y008315D01*
X005200Y008412D02*
X005006Y008412D01*
X005006Y008460D02*
X005054Y008508D01*
X005151Y008508D01*
X005200Y008460D01*
X005200Y008412D01*
X005301Y008412D02*
X005398Y008508D01*
X005446Y008508D01*
X005546Y008508D02*
X005546Y008315D01*
X005546Y008412D02*
X005643Y008508D01*
X005691Y008508D01*
X005792Y008508D02*
X005792Y008363D01*
X005840Y008315D01*
X005985Y008315D01*
X005985Y008267D02*
X005937Y008218D01*
X005889Y008218D01*
X005985Y008267D02*
X005985Y008508D01*
X006087Y008508D02*
X006087Y008557D01*
X006135Y008605D01*
X006232Y008605D01*
X006280Y008557D01*
X006232Y008460D02*
X006135Y008460D01*
X006087Y008508D01*
X006087Y008363D02*
X006135Y008315D01*
X006232Y008315D01*
X006280Y008363D01*
X006280Y008412D01*
X006232Y008460D01*
X006381Y008605D02*
X006575Y008605D01*
X006478Y008605D02*
X006478Y008315D01*
X006676Y008315D02*
X006869Y008315D01*
X006970Y008315D02*
X006970Y008605D01*
X007067Y008508D01*
X007164Y008605D01*
X007164Y008315D01*
X006869Y008605D02*
X006676Y008605D01*
X006676Y008315D01*
X006676Y008460D02*
X006773Y008460D01*
X006378Y008843D02*
X006330Y008795D01*
X006233Y008795D01*
X006185Y008843D01*
X006185Y008940D02*
X006281Y008988D01*
X006330Y008988D01*
X006378Y008940D01*
X006378Y008843D01*
X006185Y008940D02*
X006185Y009085D01*
X006378Y009085D01*
X006084Y008795D02*
X005890Y008795D01*
X005987Y008795D02*
X005987Y009085D01*
X005890Y008988D01*
X005789Y009037D02*
X005789Y008843D01*
X005741Y008795D01*
X005644Y008795D01*
X005595Y008843D01*
X005789Y009037D01*
X005741Y009085D01*
X005644Y009085D01*
X005595Y009037D01*
X005595Y008843D01*
X005494Y008795D02*
X005301Y008795D01*
X005494Y008988D01*
X005494Y009037D01*
X005446Y009085D01*
X005349Y009085D01*
X005301Y009037D01*
X005326Y009415D02*
X005278Y009463D01*
X005471Y009657D01*
X005471Y009463D01*
X005423Y009415D01*
X005326Y009415D01*
X005278Y009463D02*
X005278Y009657D01*
X005326Y009705D01*
X005423Y009705D01*
X005471Y009657D01*
X005572Y009608D02*
X005669Y009705D01*
X005669Y009415D01*
X005572Y009415D02*
X005766Y009415D01*
X005867Y009415D02*
X006012Y009415D01*
X006060Y009463D01*
X006060Y009560D01*
X006012Y009608D01*
X005867Y009608D01*
X005867Y009705D02*
X005867Y009415D01*
X005176Y009560D02*
X004983Y009560D01*
X004882Y009608D02*
X004785Y009415D01*
X004688Y009608D01*
X004587Y009560D02*
X004587Y009512D01*
X004394Y009512D01*
X004394Y009560D02*
X004394Y009463D01*
X004442Y009415D01*
X004539Y009415D01*
X004587Y009560D02*
X004539Y009608D01*
X004442Y009608D01*
X004394Y009560D01*
X004292Y009560D02*
X004244Y009512D01*
X004099Y009512D01*
X004196Y009512D02*
X004292Y009415D01*
X004292Y009560D02*
X004292Y009657D01*
X004244Y009705D01*
X004099Y009705D01*
X004099Y009415D01*
X005301Y008508D02*
X005301Y008315D01*
X002414Y012215D02*
X002167Y012215D01*
X002046Y012215D02*
X002046Y012462D01*
X001922Y012585D01*
X001799Y012462D01*
X001799Y012215D01*
X001799Y012400D02*
X002046Y012400D01*
X002167Y012462D02*
X002291Y012585D01*
X002291Y012215D01*
X010562Y012215D02*
X010748Y012215D01*
X010809Y012277D01*
X010809Y012338D01*
X010748Y012400D01*
X010562Y012400D01*
X010562Y012215D02*
X010562Y012585D01*
X010748Y012585D01*
X010809Y012524D01*
X010809Y012462D01*
X010748Y012400D01*
X010931Y012462D02*
X011054Y012585D01*
X011054Y012215D01*
X010931Y012215D02*
X011178Y012215D01*
X011116Y000685D02*
X010992Y000685D01*
X010931Y000624D01*
X010809Y000624D02*
X010748Y000685D01*
X010562Y000685D01*
X010562Y000315D01*
X010748Y000315D01*
X010809Y000377D01*
X010809Y000438D01*
X010748Y000500D01*
X010562Y000500D01*
X010748Y000500D02*
X010809Y000562D01*
X010809Y000624D01*
X011116Y000685D02*
X011178Y000624D01*
X011178Y000562D01*
X010931Y000315D01*
X011178Y000315D01*
D12*
X006930Y004190D02*
X004174Y004190D01*
X004174Y006946D01*
X006930Y006946D01*
X006930Y004190D01*
X006635Y006749D02*
X006637Y006768D01*
X006642Y006787D01*
X006652Y006803D01*
X006664Y006818D01*
X006679Y006830D01*
X006695Y006840D01*
X006714Y006845D01*
X006733Y006847D01*
X006752Y006845D01*
X006771Y006840D01*
X006787Y006830D01*
X006802Y006818D01*
X006814Y006803D01*
X006824Y006787D01*
X006829Y006768D01*
X006831Y006749D01*
X006829Y006730D01*
X006824Y006711D01*
X006814Y006695D01*
X006802Y006680D01*
X006787Y006668D01*
X006771Y006658D01*
X006752Y006653D01*
X006733Y006651D01*
X006714Y006653D01*
X006695Y006658D01*
X006679Y006668D01*
X006664Y006680D01*
X006652Y006695D01*
X006642Y006711D01*
X006637Y006730D01*
X006635Y006749D01*
M02*
