G75*
%MOIN*%
%OFA0B0*%
%FSLAX24Y24*%
%IPPOS*%
%LPD*%
%AMOC8*
5,1,8,0,0,1.08239X$1,22.5*
%
%ADD10C,0.0040*%
%ADD11C,0.0080*%
%ADD12C,0.0050*%
%ADD13C,0.0060*%
%ADD14R,0.0200X0.0200*%
D10*
X000400Y007170D02*
X000554Y007170D01*
X000477Y007170D02*
X000477Y007630D01*
X000554Y007630D02*
X000400Y007630D01*
X000707Y007554D02*
X000784Y007630D01*
X000937Y007630D01*
X001014Y007554D01*
X001014Y007477D01*
X000937Y007400D01*
X000784Y007400D01*
X000707Y007323D01*
X000707Y007247D01*
X000784Y007170D01*
X000937Y007170D01*
X001014Y007247D01*
X002283Y009869D02*
X002590Y009869D01*
X002283Y010176D01*
X002283Y010253D01*
X002360Y010330D01*
X002513Y010330D01*
X002590Y010253D01*
X002744Y010330D02*
X002744Y009946D01*
X002820Y009869D01*
X002974Y009869D01*
X003051Y009946D01*
X003051Y010330D01*
X010926Y008630D02*
X011233Y008323D01*
X011156Y008400D02*
X010926Y008170D01*
X011233Y008170D02*
X011233Y008630D01*
X011386Y008170D02*
X011693Y008170D01*
X011693Y008630D01*
X011847Y008554D02*
X011923Y008630D01*
X012077Y008630D01*
X012154Y008554D01*
X012154Y008247D01*
X012077Y008170D01*
X011923Y008170D01*
X011847Y008247D01*
X012307Y008247D02*
X012384Y008170D01*
X012537Y008170D01*
X012614Y008247D01*
X012537Y008400D02*
X012384Y008400D01*
X012307Y008323D01*
X012307Y008247D01*
X012537Y008400D02*
X012614Y008477D01*
X012614Y008554D01*
X012537Y008630D01*
X012384Y008630D01*
X012307Y008554D01*
X012384Y009170D02*
X012537Y009170D01*
X012614Y009247D01*
X012461Y009400D02*
X012384Y009400D01*
X012307Y009323D01*
X012307Y009247D01*
X012384Y009170D01*
X012384Y009400D02*
X012307Y009477D01*
X012307Y009554D01*
X012384Y009630D01*
X012537Y009630D01*
X012614Y009554D01*
X012154Y009247D02*
X012077Y009247D01*
X012077Y009170D01*
X012154Y009170D01*
X012154Y009247D01*
X011923Y009247D02*
X011847Y009170D01*
X011693Y009170D01*
X011616Y009247D01*
X011616Y009323D01*
X011693Y009400D01*
X011770Y009400D01*
X011693Y009400D02*
X011616Y009477D01*
X011616Y009554D01*
X011693Y009630D01*
X011847Y009630D01*
X011923Y009554D01*
X011463Y009630D02*
X011463Y009323D01*
X011310Y009170D01*
X011156Y009323D01*
X011156Y009630D01*
X011156Y007630D02*
X011079Y007554D01*
X011079Y007247D01*
X011156Y007170D01*
X011310Y007170D01*
X011386Y007247D01*
X011386Y007554D01*
X011310Y007630D01*
X011156Y007630D01*
X011540Y007554D02*
X011616Y007630D01*
X011770Y007630D01*
X011847Y007554D01*
X011847Y007477D01*
X011770Y007400D01*
X011616Y007400D01*
X011540Y007323D01*
X011540Y007247D01*
X011616Y007170D01*
X011770Y007170D01*
X011847Y007247D01*
X012000Y007170D02*
X012154Y007170D01*
X012077Y007170D02*
X012077Y007630D01*
X012154Y007630D02*
X012000Y007630D01*
X012307Y007630D02*
X012307Y007170D01*
X012614Y007170D02*
X012614Y007630D01*
X012461Y007477D01*
X012307Y007630D01*
X012384Y006630D02*
X012537Y006630D01*
X012614Y006554D01*
X012614Y006247D01*
X012537Y006170D01*
X012384Y006170D01*
X012307Y006247D01*
X012154Y006170D02*
X011847Y006170D01*
X012000Y006400D02*
X012154Y006400D01*
X012307Y006554D02*
X012384Y006630D01*
X012154Y006630D02*
X012154Y006170D01*
X012154Y006630D02*
X011847Y006630D01*
X011923Y005630D02*
X011847Y005554D01*
X011923Y005630D02*
X012077Y005630D01*
X012154Y005554D01*
X012154Y005477D01*
X012077Y005400D01*
X011923Y005400D01*
X011847Y005323D01*
X011847Y005247D01*
X011923Y005170D01*
X012077Y005170D01*
X012154Y005247D01*
X012307Y005170D02*
X012461Y005323D01*
X012384Y005323D02*
X012614Y005323D01*
X012614Y005170D02*
X012614Y005630D01*
X012384Y005630D01*
X012307Y005554D01*
X012307Y005400D01*
X012384Y005323D01*
X012384Y004780D02*
X012537Y004780D01*
X012614Y004704D01*
X012614Y004397D01*
X012537Y004320D01*
X012384Y004320D01*
X012307Y004397D01*
X012307Y004550D01*
X012461Y004550D01*
X012307Y004704D02*
X012384Y004780D01*
X012154Y004780D02*
X011847Y004320D01*
X011847Y004780D01*
X011693Y004780D02*
X011463Y004780D01*
X011386Y004704D01*
X011386Y004397D01*
X011463Y004320D01*
X011693Y004320D01*
X011693Y004780D01*
X011540Y005170D02*
X011540Y005630D01*
X011693Y005630D02*
X011386Y005630D01*
X012154Y004780D02*
X012154Y004320D01*
D11*
X009534Y004350D02*
X000384Y004350D01*
X000384Y005350D02*
X011234Y005350D01*
X011134Y004550D02*
X009734Y004550D01*
X009534Y004350D01*
X011584Y006350D02*
X000384Y006350D01*
X001134Y007350D02*
X010884Y007350D01*
X010484Y008000D01*
X010684Y008350D02*
X000384Y008350D01*
X000384Y009350D02*
X010884Y009350D01*
X010884Y007350D02*
X010484Y006650D01*
D12*
X007864Y006099D02*
X007864Y009643D01*
X003140Y009643D01*
X003140Y006099D01*
X007864Y006099D01*
X007321Y006999D02*
X007323Y007023D01*
X007329Y007047D01*
X007338Y007069D01*
X007351Y007089D01*
X007367Y007107D01*
X007386Y007122D01*
X007407Y007135D01*
X007429Y007143D01*
X007453Y007148D01*
X007477Y007149D01*
X007501Y007146D01*
X007524Y007139D01*
X007546Y007129D01*
X007566Y007115D01*
X007583Y007098D01*
X007598Y007079D01*
X007609Y007058D01*
X007617Y007035D01*
X007621Y007011D01*
X007621Y006987D01*
X007617Y006963D01*
X007609Y006940D01*
X007598Y006919D01*
X007583Y006900D01*
X007566Y006883D01*
X007546Y006869D01*
X007524Y006859D01*
X007501Y006852D01*
X007477Y006849D01*
X007453Y006850D01*
X007429Y006855D01*
X007407Y006863D01*
X007386Y006876D01*
X007367Y006891D01*
X007351Y006909D01*
X007338Y006929D01*
X007329Y006951D01*
X007323Y006975D01*
X007321Y006999D01*
D13*
X009904Y004440D02*
X010404Y004440D01*
X010654Y004190D01*
X010654Y002690D01*
X010404Y002440D01*
X009904Y002440D01*
X009654Y002690D01*
X009654Y004190D01*
X009904Y004440D01*
X010654Y004190D02*
X010904Y004440D01*
X011654Y004190D02*
X011654Y002690D01*
X011404Y002440D01*
X010904Y002440D01*
X010654Y002690D01*
X011654Y002690D02*
X011904Y002440D01*
X012404Y002440D01*
X012654Y002690D01*
X012654Y004190D01*
D14*
X012154Y003940D03*
X011154Y003940D03*
X011154Y002940D03*
X012154Y002940D03*
X010154Y002940D03*
X010154Y003940D03*
M02*
