G75*
%MOIN*%
%OFA0B0*%
%FSLAX24Y24*%
%IPPOS*%
%LPD*%
%AMOC8*
5,1,8,0,0,1.08239X$1,22.5*
%
%ADD10C,0.0160*%
D10*
X004450Y003679D02*
X004450Y004109D01*
X004765Y004109D02*
X004765Y003679D01*
X005080Y003679D02*
X005080Y004109D01*
X005395Y004109D02*
X005395Y003679D01*
X005710Y003679D02*
X005710Y004109D01*
X006025Y004109D02*
X006025Y003679D01*
X006339Y003679D02*
X006339Y004109D01*
X006654Y004109D02*
X006654Y003679D01*
X007010Y004465D02*
X007440Y004465D01*
X007440Y004780D02*
X007010Y004780D01*
X007010Y005095D02*
X007440Y005095D01*
X007440Y005410D02*
X007010Y005410D01*
X007010Y005725D02*
X007440Y005725D01*
X007440Y006040D02*
X007010Y006040D01*
X007010Y006355D02*
X007440Y006355D01*
X007440Y006670D02*
X007010Y006670D01*
X006654Y007026D02*
X006654Y007456D01*
X006339Y007456D02*
X006339Y007026D01*
X006025Y007026D02*
X006025Y007456D01*
X005710Y007456D02*
X005710Y007026D01*
X005395Y007026D02*
X005395Y007456D01*
X005080Y007456D02*
X005080Y007026D01*
X004765Y007026D02*
X004765Y007456D01*
X004450Y007456D02*
X004450Y007026D01*
X004094Y006670D02*
X003664Y006670D01*
X003664Y006355D02*
X004094Y006355D01*
X004094Y006040D02*
X003664Y006040D01*
X003664Y005725D02*
X004094Y005725D01*
X004094Y005410D02*
X003664Y005410D01*
X003664Y005095D02*
X004094Y005095D01*
X004094Y004780D02*
X003664Y004780D01*
X003664Y004465D02*
X004094Y004465D01*
M02*
