G75*
%MOIN*%
%OFA0B0*%
%FSLAX24Y24*%
%IPPOS*%
%LPD*%
%AMOC8*
5,1,8,0,0,1.08239X$1,22.5*
%
%ADD10C,0.0000*%
%ADD11C,0.0010*%
%ADD12C,0.0160*%
%ADD13OC8,0.0600*%
%ADD14R,0.0600X0.0600*%
%ADD15C,0.0600*%
%ADD16C,0.0591*%
%ADD17C,0.0080*%
%ADD18C,0.0270*%
%ADD19C,0.0120*%
D10*
X000659Y001450D02*
X000661Y001500D01*
X000667Y001549D01*
X000677Y001598D01*
X000690Y001645D01*
X000708Y001692D01*
X000729Y001737D01*
X000753Y001780D01*
X000781Y001821D01*
X000812Y001860D01*
X000846Y001896D01*
X000883Y001930D01*
X000923Y001960D01*
X000964Y001987D01*
X001008Y002011D01*
X001053Y002031D01*
X001100Y002047D01*
X001148Y002060D01*
X001197Y002069D01*
X001247Y002074D01*
X001296Y002075D01*
X001346Y002072D01*
X001395Y002065D01*
X001444Y002054D01*
X001491Y002040D01*
X001537Y002021D01*
X001582Y001999D01*
X001625Y001974D01*
X001665Y001945D01*
X001703Y001913D01*
X001739Y001879D01*
X001772Y001841D01*
X001801Y001801D01*
X001827Y001759D01*
X001850Y001715D01*
X001869Y001669D01*
X001885Y001622D01*
X001897Y001573D01*
X001905Y001524D01*
X001909Y001475D01*
X001909Y001425D01*
X001905Y001376D01*
X001897Y001327D01*
X001885Y001278D01*
X001869Y001231D01*
X001850Y001185D01*
X001827Y001141D01*
X001801Y001099D01*
X001772Y001059D01*
X001739Y001021D01*
X001703Y000987D01*
X001665Y000955D01*
X001625Y000926D01*
X001582Y000901D01*
X001537Y000879D01*
X001491Y000860D01*
X001444Y000846D01*
X001395Y000835D01*
X001346Y000828D01*
X001296Y000825D01*
X001247Y000826D01*
X001197Y000831D01*
X001148Y000840D01*
X001100Y000853D01*
X001053Y000869D01*
X001008Y000889D01*
X000964Y000913D01*
X000923Y000940D01*
X000883Y000970D01*
X000846Y001004D01*
X000812Y001040D01*
X000781Y001079D01*
X000753Y001120D01*
X000729Y001163D01*
X000708Y001208D01*
X000690Y001255D01*
X000677Y001302D01*
X000667Y001351D01*
X000661Y001400D01*
X000659Y001450D01*
X000659Y011450D02*
X000661Y011500D01*
X000667Y011549D01*
X000677Y011598D01*
X000690Y011645D01*
X000708Y011692D01*
X000729Y011737D01*
X000753Y011780D01*
X000781Y011821D01*
X000812Y011860D01*
X000846Y011896D01*
X000883Y011930D01*
X000923Y011960D01*
X000964Y011987D01*
X001008Y012011D01*
X001053Y012031D01*
X001100Y012047D01*
X001148Y012060D01*
X001197Y012069D01*
X001247Y012074D01*
X001296Y012075D01*
X001346Y012072D01*
X001395Y012065D01*
X001444Y012054D01*
X001491Y012040D01*
X001537Y012021D01*
X001582Y011999D01*
X001625Y011974D01*
X001665Y011945D01*
X001703Y011913D01*
X001739Y011879D01*
X001772Y011841D01*
X001801Y011801D01*
X001827Y011759D01*
X001850Y011715D01*
X001869Y011669D01*
X001885Y011622D01*
X001897Y011573D01*
X001905Y011524D01*
X001909Y011475D01*
X001909Y011425D01*
X001905Y011376D01*
X001897Y011327D01*
X001885Y011278D01*
X001869Y011231D01*
X001850Y011185D01*
X001827Y011141D01*
X001801Y011099D01*
X001772Y011059D01*
X001739Y011021D01*
X001703Y010987D01*
X001665Y010955D01*
X001625Y010926D01*
X001582Y010901D01*
X001537Y010879D01*
X001491Y010860D01*
X001444Y010846D01*
X001395Y010835D01*
X001346Y010828D01*
X001296Y010825D01*
X001247Y010826D01*
X001197Y010831D01*
X001148Y010840D01*
X001100Y010853D01*
X001053Y010869D01*
X001008Y010889D01*
X000964Y010913D01*
X000923Y010940D01*
X000883Y010970D01*
X000846Y011004D01*
X000812Y011040D01*
X000781Y011079D01*
X000753Y011120D01*
X000729Y011163D01*
X000708Y011208D01*
X000690Y011255D01*
X000677Y011302D01*
X000667Y011351D01*
X000661Y011400D01*
X000659Y011450D01*
X011159Y011450D02*
X011161Y011500D01*
X011167Y011549D01*
X011177Y011598D01*
X011190Y011645D01*
X011208Y011692D01*
X011229Y011737D01*
X011253Y011780D01*
X011281Y011821D01*
X011312Y011860D01*
X011346Y011896D01*
X011383Y011930D01*
X011423Y011960D01*
X011464Y011987D01*
X011508Y012011D01*
X011553Y012031D01*
X011600Y012047D01*
X011648Y012060D01*
X011697Y012069D01*
X011747Y012074D01*
X011796Y012075D01*
X011846Y012072D01*
X011895Y012065D01*
X011944Y012054D01*
X011991Y012040D01*
X012037Y012021D01*
X012082Y011999D01*
X012125Y011974D01*
X012165Y011945D01*
X012203Y011913D01*
X012239Y011879D01*
X012272Y011841D01*
X012301Y011801D01*
X012327Y011759D01*
X012350Y011715D01*
X012369Y011669D01*
X012385Y011622D01*
X012397Y011573D01*
X012405Y011524D01*
X012409Y011475D01*
X012409Y011425D01*
X012405Y011376D01*
X012397Y011327D01*
X012385Y011278D01*
X012369Y011231D01*
X012350Y011185D01*
X012327Y011141D01*
X012301Y011099D01*
X012272Y011059D01*
X012239Y011021D01*
X012203Y010987D01*
X012165Y010955D01*
X012125Y010926D01*
X012082Y010901D01*
X012037Y010879D01*
X011991Y010860D01*
X011944Y010846D01*
X011895Y010835D01*
X011846Y010828D01*
X011796Y010825D01*
X011747Y010826D01*
X011697Y010831D01*
X011648Y010840D01*
X011600Y010853D01*
X011553Y010869D01*
X011508Y010889D01*
X011464Y010913D01*
X011423Y010940D01*
X011383Y010970D01*
X011346Y011004D01*
X011312Y011040D01*
X011281Y011079D01*
X011253Y011120D01*
X011229Y011163D01*
X011208Y011208D01*
X011190Y011255D01*
X011177Y011302D01*
X011167Y011351D01*
X011161Y011400D01*
X011159Y011450D01*
X011159Y001450D02*
X011161Y001500D01*
X011167Y001549D01*
X011177Y001598D01*
X011190Y001645D01*
X011208Y001692D01*
X011229Y001737D01*
X011253Y001780D01*
X011281Y001821D01*
X011312Y001860D01*
X011346Y001896D01*
X011383Y001930D01*
X011423Y001960D01*
X011464Y001987D01*
X011508Y002011D01*
X011553Y002031D01*
X011600Y002047D01*
X011648Y002060D01*
X011697Y002069D01*
X011747Y002074D01*
X011796Y002075D01*
X011846Y002072D01*
X011895Y002065D01*
X011944Y002054D01*
X011991Y002040D01*
X012037Y002021D01*
X012082Y001999D01*
X012125Y001974D01*
X012165Y001945D01*
X012203Y001913D01*
X012239Y001879D01*
X012272Y001841D01*
X012301Y001801D01*
X012327Y001759D01*
X012350Y001715D01*
X012369Y001669D01*
X012385Y001622D01*
X012397Y001573D01*
X012405Y001524D01*
X012409Y001475D01*
X012409Y001425D01*
X012405Y001376D01*
X012397Y001327D01*
X012385Y001278D01*
X012369Y001231D01*
X012350Y001185D01*
X012327Y001141D01*
X012301Y001099D01*
X012272Y001059D01*
X012239Y001021D01*
X012203Y000987D01*
X012165Y000955D01*
X012125Y000926D01*
X012082Y000901D01*
X012037Y000879D01*
X011991Y000860D01*
X011944Y000846D01*
X011895Y000835D01*
X011846Y000828D01*
X011796Y000825D01*
X011747Y000826D01*
X011697Y000831D01*
X011648Y000840D01*
X011600Y000853D01*
X011553Y000869D01*
X011508Y000889D01*
X011464Y000913D01*
X011423Y000940D01*
X011383Y000970D01*
X011346Y001004D01*
X011312Y001040D01*
X011281Y001079D01*
X011253Y001120D01*
X011229Y001163D01*
X011208Y001208D01*
X011190Y001255D01*
X011177Y001302D01*
X011167Y001351D01*
X011161Y001400D01*
X011159Y001450D01*
D11*
X000284Y000200D02*
X000284Y012700D01*
X012784Y012700D01*
X012784Y000200D01*
X000284Y000200D01*
D12*
X004450Y003679D02*
X004450Y004109D01*
X004765Y004109D02*
X004765Y003679D01*
X005080Y003679D02*
X005080Y004109D01*
X005395Y004109D02*
X005395Y003679D01*
X005710Y003679D02*
X005710Y004109D01*
X006025Y004109D02*
X006025Y003679D01*
X006339Y003679D02*
X006339Y004109D01*
X006654Y004109D02*
X006654Y003679D01*
X007010Y004465D02*
X007440Y004465D01*
X007440Y004780D02*
X007010Y004780D01*
X007010Y005095D02*
X007440Y005095D01*
X007440Y005410D02*
X007010Y005410D01*
X007010Y005725D02*
X007440Y005725D01*
X007440Y006040D02*
X007010Y006040D01*
X007010Y006355D02*
X007440Y006355D01*
X007440Y006670D02*
X007010Y006670D01*
X006654Y007026D02*
X006654Y007456D01*
X006339Y007456D02*
X006339Y007026D01*
X006025Y007026D02*
X006025Y007456D01*
X005710Y007456D02*
X005710Y007026D01*
X005395Y007026D02*
X005395Y007456D01*
X005080Y007456D02*
X005080Y007026D01*
X004765Y007026D02*
X004765Y007456D01*
X004450Y007456D02*
X004450Y007026D01*
X004094Y006670D02*
X003664Y006670D01*
X003664Y006355D02*
X004094Y006355D01*
X004094Y006040D02*
X003664Y006040D01*
X003664Y005725D02*
X004094Y005725D01*
X004094Y005410D02*
X003664Y005410D01*
X003664Y005095D02*
X004094Y005095D01*
X004094Y004780D02*
X003664Y004780D01*
X003664Y004465D02*
X004094Y004465D01*
D13*
X010154Y002940D03*
X011154Y002940D03*
X012154Y002940D03*
X012154Y003940D03*
X011154Y003940D03*
D14*
X010154Y003940D03*
D15*
X009134Y004340D02*
X008534Y004340D01*
X008534Y005340D02*
X009134Y005340D01*
X009134Y006340D02*
X008534Y006340D01*
X008534Y007340D02*
X009134Y007340D01*
X009134Y008340D02*
X008534Y008340D01*
X008534Y009340D02*
X009134Y009340D01*
X002434Y009340D02*
X001834Y009340D01*
X001834Y008340D02*
X002434Y008340D01*
X002434Y007340D02*
X001834Y007340D01*
X001834Y006340D02*
X002434Y006340D01*
X002434Y005340D02*
X001834Y005340D01*
X001834Y004340D02*
X002434Y004340D01*
D16*
X003034Y002015D02*
X003034Y001425D01*
X004034Y001425D02*
X004034Y002015D01*
X005034Y002015D02*
X005034Y001425D01*
X006034Y001425D02*
X006034Y002015D01*
X007034Y002015D02*
X007034Y001425D01*
X008034Y001425D02*
X008034Y002015D01*
X009034Y002015D02*
X009034Y001425D01*
X010034Y001425D02*
X010034Y002015D01*
X010034Y010875D02*
X010034Y011465D01*
X009034Y011465D02*
X009034Y010875D01*
X008034Y010875D02*
X008034Y011465D01*
X007034Y011465D02*
X007034Y010875D01*
X006034Y010875D02*
X006034Y011465D01*
X005034Y011465D02*
X005034Y010875D01*
X004034Y010875D02*
X004034Y011465D01*
X003034Y011465D02*
X003034Y010875D01*
D17*
X003104Y009950D02*
X003244Y009810D01*
X007794Y009810D01*
X007234Y009040D02*
X007094Y008900D01*
X003384Y008900D01*
X002754Y008060D02*
X002614Y007920D01*
X001634Y007920D01*
X001424Y008130D01*
X001424Y008620D01*
X002124Y009320D01*
X002134Y009340D01*
X002124Y010230D02*
X003994Y010230D01*
X004574Y010860D01*
X004574Y011630D01*
X004854Y011910D01*
X008284Y011910D01*
X008984Y011210D01*
X009474Y011630D02*
X009194Y011910D01*
X008774Y011910D01*
X009474Y011630D02*
X009474Y010300D01*
X008844Y010440D02*
X006744Y010440D01*
X006044Y011140D01*
X004434Y010300D02*
X008634Y010300D01*
X008774Y010160D01*
X008844Y010440D02*
X010314Y008970D01*
X010314Y007990D01*
X009894Y007570D01*
X009894Y006100D01*
X010594Y005400D01*
X010594Y003580D01*
X010524Y003510D01*
X009824Y003510D01*
X009754Y003580D01*
X009754Y004350D01*
X009334Y004770D01*
X008494Y004770D01*
X007864Y005400D01*
X007234Y005400D01*
X007225Y005410D01*
X007225Y005095D02*
X007234Y005050D01*
X007444Y005050D01*
X007794Y004700D01*
X007794Y004070D01*
X007514Y003860D02*
X007234Y004140D01*
X007234Y004420D01*
X007225Y004465D01*
X007225Y004780D02*
X007164Y004840D01*
X006884Y004840D01*
X006744Y004980D01*
X006324Y004980D02*
X007024Y005680D01*
X007164Y005680D01*
X007225Y005725D01*
X007234Y005680D01*
X008494Y005680D01*
X008834Y005340D01*
X009264Y004910D01*
X009824Y004910D01*
X010104Y005680D02*
X009544Y006240D01*
X009544Y006590D01*
X008844Y007290D01*
X008834Y007340D01*
X008774Y007360D01*
X008074Y008060D01*
X005974Y008060D01*
X005694Y007780D01*
X006044Y007780D02*
X006324Y007500D01*
X006324Y007290D01*
X006339Y007241D01*
X006604Y007220D02*
X006604Y007010D01*
X006324Y006730D01*
X006604Y007220D02*
X006654Y007241D01*
X006814Y006870D02*
X005064Y005120D01*
X003944Y005120D01*
X003879Y005095D01*
X003874Y005120D01*
X003384Y005120D01*
X002194Y006310D01*
X002134Y006340D01*
X002474Y006800D02*
X001704Y006800D01*
X001424Y006520D01*
X001424Y005050D01*
X002134Y004340D01*
X001424Y003930D02*
X001424Y003790D01*
X001424Y003930D02*
X001144Y004210D01*
X001144Y009250D01*
X002124Y010230D01*
X002754Y008060D02*
X005064Y008060D01*
X005694Y007430D01*
X005694Y007290D01*
X005710Y007241D01*
X005694Y007220D01*
X005694Y007010D01*
X005414Y006730D01*
X005344Y006730D01*
X005395Y007241D02*
X005344Y007290D01*
X005344Y007500D01*
X005204Y007640D01*
X003314Y007640D01*
X002474Y006800D01*
X002964Y007780D02*
X001704Y007780D01*
X001284Y007360D01*
X001284Y004280D01*
X002194Y003370D01*
X004714Y003370D01*
X004574Y002880D02*
X003734Y002880D01*
X003034Y002180D01*
X003034Y001760D01*
X003804Y002600D02*
X005204Y002600D01*
X006324Y003720D01*
X006324Y003860D01*
X006339Y003894D01*
X006604Y003860D02*
X006654Y003894D01*
X006604Y003860D02*
X006604Y002320D01*
X006044Y001760D01*
X004574Y002880D02*
X005344Y003650D01*
X005344Y003860D01*
X005395Y003894D01*
X005710Y003894D02*
X005764Y003930D01*
X005764Y004420D01*
X006044Y004070D02*
X006324Y004350D01*
X006674Y004350D01*
X008004Y003020D01*
X008004Y001760D01*
X009754Y003370D02*
X008844Y004280D01*
X008834Y004340D01*
X009754Y003370D02*
X011294Y003370D01*
X011714Y002950D01*
X012134Y002950D01*
X012154Y002940D01*
X012484Y003510D02*
X011784Y003510D01*
X011364Y003930D01*
X011154Y003930D01*
X011154Y003940D01*
X012154Y003940D02*
X012204Y004000D01*
X010594Y005610D01*
X010594Y005750D01*
X010104Y005680D02*
X010104Y004000D01*
X010154Y003940D01*
X012484Y003510D02*
X012554Y003580D01*
X012554Y004630D01*
X010174Y007010D01*
X010034Y008060D02*
X008774Y009320D01*
X008834Y009340D01*
X007654Y006870D02*
X006814Y006870D01*
X007024Y006660D02*
X006464Y006100D01*
X006464Y005470D01*
X006324Y004980D02*
X005064Y004980D01*
X004364Y004280D01*
X003594Y004280D01*
X002544Y005330D01*
X002194Y005330D01*
X002134Y005340D01*
X002894Y004630D02*
X003594Y003930D01*
X004434Y003930D01*
X004450Y003894D01*
X004765Y003894D02*
X004784Y003930D01*
X004784Y004070D01*
X005134Y004420D01*
X005134Y004630D01*
X004364Y004700D02*
X004154Y004490D01*
X003944Y004490D01*
X003879Y004465D01*
X003879Y004780D02*
X003874Y004840D01*
X003384Y004840D01*
X004434Y005470D02*
X004434Y005680D01*
X004084Y006030D01*
X003944Y006030D01*
X003879Y006040D01*
X003879Y006355D02*
X003944Y006380D01*
X004084Y006380D01*
X004434Y006730D01*
X004154Y006940D02*
X004154Y007010D01*
X004154Y006940D02*
X003944Y006730D01*
X003879Y006670D01*
X006044Y004070D02*
X006044Y003930D01*
X006025Y003894D01*
X007234Y006030D02*
X007225Y006040D01*
X007234Y006030D02*
X007794Y006030D01*
X007794Y006380D02*
X007234Y006380D01*
X007225Y006355D01*
X007164Y006660D02*
X007024Y006660D01*
X007164Y006660D02*
X007225Y006670D01*
X007654Y006870D02*
X008144Y006380D01*
X008774Y006380D01*
X008834Y006340D01*
D18*
X007794Y006380D03*
X007794Y006030D03*
X006744Y004980D03*
X006464Y005470D03*
X005764Y004420D03*
X005134Y004630D03*
X004364Y004700D03*
X004434Y005470D03*
X003384Y004840D03*
X002894Y004630D03*
X001424Y003790D03*
X003804Y002600D03*
X004714Y003370D03*
X007514Y003860D03*
X007794Y004070D03*
X009824Y004910D03*
X010594Y005750D03*
X010174Y007010D03*
X010034Y008060D03*
X008774Y010160D03*
X009474Y010300D03*
X007794Y009810D03*
X007234Y009040D03*
X006044Y007780D03*
X005694Y007780D03*
X005344Y006730D03*
X004434Y006730D03*
X004154Y007010D03*
X002964Y007780D03*
X003384Y008900D03*
X003104Y009950D03*
X004434Y010300D03*
X006324Y006730D03*
X008774Y011910D03*
D19*
X008834Y009340D02*
X002134Y009340D01*
X002134Y008340D02*
X008834Y008340D01*
M02*
