G75*
%MOIN*%
%OFA0B0*%
%FSLAX24Y24*%
%IPPOS*%
%LPD*%
%AMOC8*
5,1,8,0,0,1.08239X$1,22.5*
%
%ADD10C,0.0030*%
%ADD11C,0.0010*%
%ADD12C,0.0140*%
%ADD13C,0.0050*%
D10*
X001739Y006145D02*
X001739Y006435D01*
X001594Y006435D01*
X001546Y006387D01*
X001546Y006290D01*
X001594Y006242D01*
X001739Y006242D01*
X001840Y006193D02*
X002034Y006387D01*
X001985Y006435D01*
X001889Y006435D01*
X001840Y006387D01*
X001840Y006193D01*
X001889Y006145D01*
X001985Y006145D01*
X002034Y006193D01*
X002034Y006387D01*
X002135Y006387D02*
X002135Y006193D01*
X002328Y006387D01*
X002280Y006435D01*
X002183Y006435D01*
X002135Y006387D01*
X002135Y006193D02*
X002183Y006145D01*
X002280Y006145D01*
X002328Y006193D01*
X002328Y006387D01*
X002430Y006290D02*
X002623Y006290D01*
X002724Y006242D02*
X002821Y006435D01*
X002918Y006242D01*
X003019Y006290D02*
X003019Y006338D01*
X003212Y006338D01*
X003212Y006290D02*
X003212Y006387D01*
X003164Y006435D01*
X003067Y006435D01*
X003019Y006290D02*
X003067Y006242D01*
X003164Y006242D01*
X003212Y006290D01*
X003313Y006290D02*
X003313Y006193D01*
X003362Y006145D01*
X003507Y006145D01*
X003507Y006435D01*
X003507Y006338D02*
X003362Y006338D01*
X003313Y006290D01*
X003410Y006338D02*
X003313Y006435D01*
X003466Y008315D02*
X003369Y008412D01*
X003369Y008508D01*
X003466Y008605D01*
X003567Y008605D02*
X003712Y008605D01*
X003761Y008557D01*
X003761Y008460D01*
X003712Y008412D01*
X003567Y008412D01*
X003812Y008795D02*
X003763Y008843D01*
X003763Y008940D01*
X003812Y008988D01*
X003957Y008988D01*
X003957Y009085D02*
X003957Y008795D01*
X003812Y008795D01*
X003860Y008605D02*
X003957Y008508D01*
X003957Y008412D01*
X003860Y008315D01*
X003614Y008892D02*
X003517Y008892D01*
X003469Y008940D01*
X003469Y009085D01*
X003614Y009085D01*
X003662Y009037D01*
X003614Y008988D01*
X003469Y008988D01*
X003368Y008940D02*
X003319Y008892D01*
X003174Y008892D01*
X003223Y008988D02*
X003319Y008988D01*
X003368Y008940D01*
X003368Y009085D02*
X003223Y009085D01*
X003174Y009037D01*
X003223Y008988D01*
X003073Y008892D02*
X002928Y008892D01*
X002880Y008940D01*
X002880Y009037D01*
X002928Y009085D01*
X003073Y009085D01*
X003073Y009182D02*
X003073Y008892D01*
X002975Y008605D02*
X002781Y008412D01*
X002781Y008363D01*
X002830Y008315D01*
X002926Y008315D01*
X002975Y008363D01*
X002975Y008605D02*
X002781Y008605D01*
X002778Y008795D02*
X002778Y009085D01*
X002633Y009085D01*
X002585Y009037D01*
X002585Y008940D01*
X002633Y008892D01*
X002778Y008892D01*
X002632Y008605D02*
X002680Y008557D01*
X002487Y008363D01*
X002487Y008557D01*
X002535Y008605D01*
X002632Y008605D01*
X002680Y008557D02*
X002680Y008363D01*
X002632Y008315D01*
X002535Y008315D01*
X002487Y008363D01*
X002386Y008412D02*
X002289Y008315D01*
X002289Y008605D01*
X002386Y008605D02*
X002192Y008605D01*
X002091Y008557D02*
X002042Y008605D01*
X001946Y008605D01*
X001897Y008557D01*
X001897Y008460D01*
X001946Y008412D01*
X001994Y008412D01*
X002091Y008460D01*
X002091Y008315D01*
X001897Y008315D01*
X001944Y008892D02*
X001944Y009085D01*
X001944Y008988D02*
X001847Y008892D01*
X001798Y008892D01*
X001698Y008892D02*
X001698Y009037D01*
X001650Y009085D01*
X001504Y009085D01*
X001504Y009133D02*
X001553Y009182D01*
X001601Y009182D01*
X001504Y009133D02*
X001504Y008892D01*
X001403Y008892D02*
X001355Y008940D01*
X001258Y008940D01*
X001210Y008988D01*
X001210Y009037D01*
X001258Y009085D01*
X001355Y009085D01*
X001403Y009037D01*
X001403Y008892D02*
X001403Y008843D01*
X001355Y008795D01*
X001258Y008795D01*
X001210Y008843D01*
X001109Y008795D02*
X000915Y008795D01*
X001012Y008795D02*
X001012Y009085D01*
X000814Y009085D02*
X000814Y008795D01*
X000621Y008795D01*
X000519Y008795D02*
X000423Y008892D01*
X000326Y008795D01*
X000326Y009085D01*
X000519Y009085D02*
X000519Y008795D01*
X000621Y009085D02*
X000814Y009085D01*
X000814Y008940D02*
X000717Y008940D01*
X002044Y008892D02*
X002092Y008892D01*
X002189Y008988D01*
X002189Y008892D02*
X002189Y009085D01*
X002290Y008988D02*
X002484Y008988D01*
X002484Y008940D02*
X002435Y008892D01*
X002339Y008892D01*
X002290Y008940D01*
X002290Y008988D01*
X002339Y009085D02*
X002435Y009085D01*
X002484Y009037D01*
X002484Y008940D01*
X003763Y009085D02*
X003860Y008988D01*
D11*
X002972Y001680D02*
X002832Y001560D01*
X002702Y001680D01*
X002432Y001430D01*
X002562Y001290D01*
X002432Y001170D01*
X002442Y001160D01*
X002702Y000890D01*
X002832Y001030D01*
X002972Y000890D01*
X003232Y001150D01*
X003102Y001300D01*
X003232Y001420D01*
X002972Y001680D01*
X002979Y001673D02*
X002964Y001673D01*
X002954Y001665D02*
X002987Y001665D01*
X002996Y001656D02*
X002944Y001656D01*
X002934Y001648D02*
X003004Y001648D01*
X003013Y001639D02*
X002924Y001639D01*
X002914Y001631D02*
X003021Y001631D01*
X003030Y001622D02*
X002904Y001622D01*
X002894Y001614D02*
X003038Y001614D01*
X003047Y001605D02*
X002884Y001605D01*
X002875Y001597D02*
X003055Y001597D01*
X003064Y001588D02*
X002865Y001588D01*
X002855Y001580D02*
X003072Y001580D01*
X003081Y001571D02*
X002845Y001571D01*
X002835Y001563D02*
X003089Y001563D01*
X003098Y001554D02*
X002566Y001554D01*
X002575Y001563D02*
X002829Y001563D01*
X002820Y001571D02*
X002584Y001571D01*
X002593Y001580D02*
X002811Y001580D01*
X002802Y001588D02*
X002603Y001588D01*
X002612Y001597D02*
X002792Y001597D01*
X002783Y001605D02*
X002621Y001605D01*
X002630Y001614D02*
X002774Y001614D01*
X002765Y001622D02*
X002639Y001622D01*
X002649Y001631D02*
X002756Y001631D01*
X002746Y001639D02*
X002658Y001639D01*
X002667Y001648D02*
X002737Y001648D01*
X002728Y001656D02*
X002676Y001656D01*
X002685Y001665D02*
X002719Y001665D01*
X002710Y001673D02*
X002694Y001673D01*
X002557Y001546D02*
X003106Y001546D01*
X003115Y001537D02*
X002548Y001537D01*
X002538Y001529D02*
X003123Y001529D01*
X003132Y001520D02*
X002529Y001520D01*
X002520Y001512D02*
X003140Y001512D01*
X003149Y001503D02*
X002511Y001503D01*
X002502Y001495D02*
X003157Y001495D01*
X003166Y001486D02*
X002492Y001486D01*
X002483Y001478D02*
X003174Y001478D01*
X003183Y001469D02*
X002474Y001469D01*
X002465Y001461D02*
X003191Y001461D01*
X003200Y001452D02*
X002456Y001452D01*
X002447Y001444D02*
X003208Y001444D01*
X003217Y001435D02*
X002437Y001435D01*
X002435Y001427D02*
X003225Y001427D01*
X003230Y001418D02*
X002443Y001418D01*
X002451Y001410D02*
X003221Y001410D01*
X003211Y001401D02*
X002459Y001401D01*
X002467Y001393D02*
X003202Y001393D01*
X003193Y001384D02*
X002475Y001384D01*
X002483Y001376D02*
X003184Y001376D01*
X003175Y001367D02*
X002490Y001367D01*
X002498Y001359D02*
X003165Y001359D01*
X003156Y001350D02*
X002506Y001350D01*
X002514Y001341D02*
X003147Y001341D01*
X003138Y001333D02*
X002522Y001333D01*
X002530Y001324D02*
X003129Y001324D01*
X003119Y001316D02*
X002538Y001316D01*
X002546Y001307D02*
X003110Y001307D01*
X003103Y001299D02*
X002554Y001299D01*
X002562Y001290D02*
X003110Y001290D01*
X003118Y001282D02*
X002553Y001282D01*
X002544Y001273D02*
X003125Y001273D01*
X003132Y001265D02*
X002535Y001265D01*
X002526Y001256D02*
X003140Y001256D01*
X003147Y001248D02*
X002516Y001248D01*
X002507Y001239D02*
X003154Y001239D01*
X003162Y001231D02*
X002498Y001231D01*
X002489Y001222D02*
X003169Y001222D01*
X003177Y001214D02*
X002480Y001214D01*
X002470Y001205D02*
X003184Y001205D01*
X003191Y001197D02*
X002461Y001197D01*
X002452Y001188D02*
X003199Y001188D01*
X003206Y001180D02*
X002443Y001180D01*
X002434Y001171D02*
X003213Y001171D01*
X003221Y001163D02*
X002439Y001163D01*
X002447Y001154D02*
X003228Y001154D01*
X003228Y001146D02*
X002455Y001146D01*
X002464Y001137D02*
X003219Y001137D01*
X003211Y001129D02*
X002472Y001129D01*
X002480Y001120D02*
X003202Y001120D01*
X003194Y001112D02*
X002488Y001112D01*
X002496Y001103D02*
X003185Y001103D01*
X003177Y001095D02*
X002505Y001095D01*
X002513Y001086D02*
X003168Y001086D01*
X003160Y001078D02*
X002521Y001078D01*
X002529Y001069D02*
X003151Y001069D01*
X003143Y001061D02*
X002537Y001061D01*
X002546Y001052D02*
X003134Y001052D01*
X003126Y001044D02*
X002554Y001044D01*
X002562Y001035D02*
X003117Y001035D01*
X003109Y001027D02*
X002835Y001027D01*
X002829Y001027D02*
X002570Y001027D01*
X002578Y001018D02*
X002821Y001018D01*
X002813Y001010D02*
X002586Y001010D01*
X002595Y001001D02*
X002806Y001001D01*
X002798Y000993D02*
X002603Y000993D01*
X002611Y000984D02*
X002790Y000984D01*
X002782Y000976D02*
X002619Y000976D01*
X002627Y000967D02*
X002774Y000967D01*
X002766Y000959D02*
X002636Y000959D01*
X002644Y000950D02*
X002758Y000950D01*
X002750Y000942D02*
X002652Y000942D01*
X002660Y000933D02*
X002742Y000933D01*
X002734Y000925D02*
X002668Y000925D01*
X002676Y000916D02*
X002727Y000916D01*
X002719Y000908D02*
X002685Y000908D01*
X002693Y000899D02*
X002711Y000899D01*
X002703Y000891D02*
X002701Y000891D01*
X002843Y001018D02*
X003100Y001018D01*
X003092Y001010D02*
X002852Y001010D01*
X002860Y001001D02*
X003083Y001001D01*
X003075Y000993D02*
X002869Y000993D01*
X002877Y000984D02*
X003066Y000984D01*
X003058Y000976D02*
X002886Y000976D01*
X002894Y000967D02*
X003049Y000967D01*
X003041Y000959D02*
X002903Y000959D01*
X002911Y000950D02*
X003032Y000950D01*
X003024Y000942D02*
X002920Y000942D01*
X002928Y000933D02*
X003015Y000933D01*
X003007Y000925D02*
X002937Y000925D01*
X002945Y000916D02*
X002998Y000916D01*
X002990Y000908D02*
X002954Y000908D01*
X002962Y000899D02*
X002981Y000899D01*
X002973Y000891D02*
X002971Y000891D01*
X002242Y000500D02*
X002002Y000570D01*
X001972Y000450D01*
X001842Y000490D01*
X001772Y000250D01*
X002022Y000170D01*
X002062Y000290D01*
X002182Y000250D01*
X002242Y000500D01*
X001984Y000500D01*
X001982Y000491D02*
X002240Y000491D01*
X002238Y000483D02*
X001980Y000483D01*
X001978Y000474D02*
X002236Y000474D01*
X002234Y000466D02*
X001976Y000466D01*
X001974Y000457D02*
X002232Y000457D01*
X002230Y000449D02*
X001830Y000449D01*
X001832Y000457D02*
X001948Y000457D01*
X001920Y000466D02*
X001835Y000466D01*
X001837Y000474D02*
X001892Y000474D01*
X001865Y000483D02*
X001840Y000483D01*
X001828Y000440D02*
X002228Y000440D01*
X002226Y000432D02*
X001825Y000432D01*
X001823Y000423D02*
X002224Y000423D01*
X002222Y000415D02*
X001820Y000415D01*
X001818Y000406D02*
X002220Y000406D01*
X002217Y000398D02*
X001815Y000398D01*
X001813Y000389D02*
X002215Y000389D01*
X002213Y000381D02*
X001810Y000381D01*
X001808Y000372D02*
X002211Y000372D01*
X002209Y000364D02*
X001805Y000364D01*
X001803Y000355D02*
X002207Y000355D01*
X002205Y000347D02*
X001800Y000347D01*
X001798Y000338D02*
X002203Y000338D01*
X002201Y000330D02*
X001795Y000330D01*
X001793Y000321D02*
X002199Y000321D01*
X002197Y000313D02*
X001790Y000313D01*
X001788Y000304D02*
X002195Y000304D01*
X002193Y000296D02*
X001785Y000296D01*
X001783Y000287D02*
X002061Y000287D01*
X002058Y000279D02*
X001780Y000279D01*
X001778Y000270D02*
X002055Y000270D01*
X002053Y000262D02*
X001775Y000262D01*
X001773Y000253D02*
X002050Y000253D01*
X002047Y000245D02*
X001788Y000245D01*
X001814Y000236D02*
X002044Y000236D01*
X002041Y000228D02*
X001841Y000228D01*
X001867Y000219D02*
X002038Y000219D01*
X002036Y000211D02*
X001894Y000211D01*
X001921Y000202D02*
X002033Y000202D01*
X002030Y000194D02*
X001947Y000194D01*
X001974Y000185D02*
X002027Y000185D01*
X002024Y000177D02*
X002000Y000177D01*
X002070Y000287D02*
X002191Y000287D01*
X002189Y000279D02*
X002095Y000279D01*
X002121Y000270D02*
X002187Y000270D01*
X002185Y000262D02*
X002146Y000262D01*
X002172Y000253D02*
X002183Y000253D01*
X002213Y000508D02*
X001987Y000508D01*
X001989Y000517D02*
X002184Y000517D01*
X002155Y000525D02*
X001991Y000525D01*
X001993Y000534D02*
X002125Y000534D01*
X002096Y000542D02*
X001995Y000542D01*
X001997Y000551D02*
X002067Y000551D01*
X002038Y000559D02*
X001999Y000559D01*
X002001Y000568D02*
X002009Y000568D01*
X001890Y000984D02*
X001828Y000984D01*
X001830Y000976D02*
X001856Y000976D01*
X001832Y000970D02*
X001802Y001080D01*
X001682Y001050D01*
X001672Y001060D01*
X001612Y001300D01*
X001862Y001360D01*
X001892Y001240D01*
X002012Y001270D01*
X002072Y001030D01*
X001832Y000970D01*
X001826Y000993D02*
X001924Y000993D01*
X001958Y001001D02*
X001823Y001001D01*
X001821Y001010D02*
X001992Y001010D01*
X002026Y001018D02*
X001819Y001018D01*
X001816Y001027D02*
X002060Y001027D01*
X002071Y001035D02*
X001814Y001035D01*
X001812Y001044D02*
X002068Y001044D01*
X002066Y001052D02*
X001809Y001052D01*
X001807Y001061D02*
X002064Y001061D01*
X002062Y001069D02*
X001805Y001069D01*
X001803Y001078D02*
X002060Y001078D01*
X002058Y001086D02*
X001665Y001086D01*
X001667Y001078D02*
X001794Y001078D01*
X001760Y001069D02*
X001670Y001069D01*
X001672Y001061D02*
X001726Y001061D01*
X001692Y001052D02*
X001679Y001052D01*
X001663Y001095D02*
X002056Y001095D01*
X002054Y001103D02*
X001661Y001103D01*
X001659Y001112D02*
X002051Y001112D01*
X002049Y001120D02*
X001657Y001120D01*
X001655Y001129D02*
X002047Y001129D01*
X002045Y001137D02*
X001653Y001137D01*
X001650Y001146D02*
X002043Y001146D01*
X002041Y001154D02*
X001648Y001154D01*
X001646Y001163D02*
X002039Y001163D01*
X002037Y001171D02*
X001644Y001171D01*
X001642Y001180D02*
X002034Y001180D01*
X002032Y001188D02*
X001640Y001188D01*
X001638Y001197D02*
X002030Y001197D01*
X002028Y001205D02*
X001636Y001205D01*
X001633Y001214D02*
X002026Y001214D01*
X002024Y001222D02*
X001631Y001222D01*
X001629Y001231D02*
X002022Y001231D01*
X002020Y001239D02*
X001627Y001239D01*
X001625Y001248D02*
X001890Y001248D01*
X001888Y001256D02*
X001623Y001256D01*
X001621Y001265D02*
X001886Y001265D01*
X001884Y001273D02*
X001619Y001273D01*
X001616Y001282D02*
X001881Y001282D01*
X001879Y001290D02*
X001614Y001290D01*
X001612Y001299D02*
X001877Y001299D01*
X001875Y001307D02*
X001643Y001307D01*
X001679Y001316D02*
X001873Y001316D01*
X001871Y001324D02*
X001714Y001324D01*
X001749Y001333D02*
X001869Y001333D01*
X001867Y001341D02*
X001785Y001341D01*
X001820Y001350D02*
X001864Y001350D01*
X001862Y001359D02*
X001856Y001359D01*
X001924Y001248D02*
X002017Y001248D01*
X002015Y001256D02*
X001958Y001256D01*
X001992Y001265D02*
X002013Y001265D01*
D12*
X000962Y001240D02*
X000842Y001400D01*
X000962Y001240D02*
X001102Y001080D01*
X001272Y000940D01*
X001452Y000830D01*
X001652Y000760D01*
X001842Y000730D01*
X002032Y000740D01*
X002192Y000790D01*
X002332Y000850D01*
X002382Y000880D01*
D13*
X001972Y003150D02*
X001972Y003750D01*
X003272Y003750D01*
X003272Y003150D01*
X001972Y003150D01*
X001722Y003900D02*
X001122Y003900D01*
X001122Y005200D01*
X001722Y005200D01*
X001722Y003900D01*
X002025Y004066D02*
X002022Y004850D01*
X002222Y005034D01*
X003219Y005034D01*
X003219Y004066D01*
X002025Y004066D01*
X001972Y005250D02*
X003272Y005250D01*
X003272Y005850D01*
X001972Y005850D01*
X001972Y005250D01*
X001572Y005350D02*
X001572Y005950D01*
X000272Y005950D01*
X000272Y005350D01*
X001572Y005350D01*
X000922Y005200D02*
X000922Y003900D01*
X000322Y003900D01*
X000322Y005200D01*
X000922Y005200D01*
X003422Y005200D02*
X003422Y003900D01*
X004022Y003900D01*
X004022Y005200D01*
X003422Y005200D01*
M02*
