G75*
%MOIN*%
%OFA0B0*%
%FSLAX24Y24*%
%IPPOS*%
%LPD*%
%AMOC8*
5,1,8,0,0,1.08239X$1,22.5*
%
%ADD10C,0.0000*%
%ADD11R,0.0236X0.0089*%
%ADD12R,0.0394X0.0433*%
%ADD13R,0.0433X0.0394*%
%ADD14C,0.0600*%
%ADD15C,0.0080*%
D10*
X000122Y000100D02*
X000122Y009600D01*
X004122Y009600D01*
X004122Y000100D01*
X000122Y000100D01*
D11*
X002268Y004235D03*
X002268Y004393D03*
X002268Y004550D03*
X002268Y004707D03*
X002268Y004865D03*
X002976Y004865D03*
X002976Y004707D03*
X002976Y004550D03*
X002976Y004393D03*
X002976Y004235D03*
D12*
X002957Y005550D03*
X002287Y005550D03*
X001422Y004885D03*
X001422Y004215D03*
X001257Y005650D03*
X000622Y004885D03*
X000622Y004215D03*
X000587Y005650D03*
X003722Y004885D03*
X003722Y004215D03*
D13*
X002957Y003450D03*
X002287Y003450D03*
D14*
X002122Y002650D02*
X002122Y002050D01*
X001122Y002050D02*
X001122Y002650D01*
X001122Y007050D02*
X001122Y007650D01*
X002122Y007650D02*
X002122Y007050D01*
X003122Y007050D02*
X003122Y007650D01*
X003122Y002650D02*
X003122Y002050D01*
D15*
X003062Y002330D02*
X003122Y002350D01*
X003062Y002400D01*
X002992Y002470D01*
X002992Y003450D01*
X002957Y003450D01*
X002992Y003450D02*
X002992Y004220D01*
X002976Y004235D01*
X002992Y004220D02*
X002992Y004360D01*
X002976Y004393D01*
X002922Y004360D01*
X002852Y004360D01*
X002712Y004500D01*
X002712Y004640D01*
X002782Y004710D01*
X002922Y004710D01*
X002976Y004707D01*
X002976Y004550D02*
X003387Y004550D01*
X003722Y004885D01*
X003722Y007650D01*
X003222Y008150D01*
X002712Y008150D01*
X002712Y006895D01*
X002287Y006470D01*
X002287Y005550D01*
X002268Y005530D01*
X002268Y004865D01*
X002268Y004707D02*
X002222Y004710D01*
X002082Y004710D01*
X001922Y004870D01*
X001922Y005650D01*
X001257Y005650D01*
X001382Y004920D02*
X001422Y004885D01*
X001382Y004920D02*
X000682Y004920D01*
X000622Y004885D01*
X000612Y004920D01*
X000612Y005675D01*
X000587Y005650D01*
X000587Y006815D01*
X001122Y007350D01*
X001102Y007350D01*
X001122Y007350D02*
X001222Y007450D01*
X001222Y007750D01*
X001622Y008150D01*
X002712Y008150D01*
X003122Y007350D02*
X002957Y007185D01*
X002957Y005550D01*
X002976Y005270D01*
X002976Y004865D01*
X002992Y004220D02*
X003692Y004220D01*
X003722Y004215D01*
X003062Y002330D02*
X002362Y001630D01*
X000942Y001630D01*
X000522Y002050D01*
X000522Y004115D01*
X000622Y004215D01*
X000682Y004220D01*
X001382Y004220D01*
X001422Y004215D01*
X001452Y004150D01*
X001922Y003950D02*
X001122Y003150D01*
X001122Y002350D01*
X001922Y003950D02*
X001922Y004450D01*
X002022Y004550D01*
X002268Y004550D01*
X002268Y004393D02*
X002479Y004393D01*
X002622Y004250D01*
X002622Y003785D01*
X002287Y003450D01*
X001942Y003660D02*
X002222Y003940D01*
X002222Y004220D01*
X002268Y004235D01*
X001942Y003660D02*
X001942Y002540D01*
X002082Y002400D01*
X002122Y002350D01*
X001922Y005650D02*
X001922Y007150D01*
X002122Y007350D01*
X003122Y007350D02*
X003132Y007350D01*
M02*
