%
M48
M72
T01C0.0130
T02C0.0394
T03C0.0400
%
T01
X4338Y952
X5282Y716
X6031Y2684
X6542Y3078
X7290Y3550
X7527Y4101
X5755Y5676
X5282Y5716
X5558Y5204
X4023Y5007
X3275Y5716
X4219Y7330
X4574Y7330
X5164Y7330
X5637Y7330
X5991Y7330
X6345Y7330
X5479Y8432
X4968Y8432
X4968Y9219
X6149Y9219
X7527Y8156
X7999Y8550
X7960Y9928
X9613Y9613
X10204Y9023
X10558Y9023
X10794Y8786
X11582Y8629
X11582Y8983
X12172Y9023
X9731Y6779
X9495Y7015
X9968Y6542
X11345Y6031
X11936Y5794
X11582Y5440
X11936Y4731
X9495Y4023
X7920Y7133
X4456Y2723
X7330Y952
X1149Y5755
X912Y4810
X1149Y7094
X676Y7881
X1149Y8747
X2999Y11936
T02
X1625Y1625
X2924Y1700
X3924Y1700
X4924Y1700
X5924Y1700
X6924Y1700
X7924Y1700
X8924Y1700
X9924Y1700
X11625Y1625
X9924Y11149
X8924Y11149
X7924Y11149
X6924Y11149
X5924Y11149
X4924Y11149
X3924Y11149
X2924Y11149
X1625Y11625
X11625Y11625
T03
X8786Y9318
X8786Y8318
X8786Y7318
X8786Y6318
X8786Y5318
X8786Y4318
X5536Y4473
X5536Y3473
X4536Y3473
X4536Y4473
X3536Y4473
X3536Y3473
X2031Y4318
X2031Y5318
X2031Y6318
X2031Y7318
X2031Y8318
X2031Y9318
M30
