G75*
%MOIN*%
%OFA0B0*%
%FSLAX24Y24*%
%IPPOS*%
%LPD*%
%AMOC8*
5,1,8,0,0,1.08239X$1,22.5*
%
%ADD10C,0.0220*%
%ADD11C,0.0651*%
%ADD12R,0.0178X0.0336*%
%ADD13R,0.0800X0.0800*%
%ADD14OC8,0.0800*%
%ADD15C,0.0660*%
%ADD16C,0.0330*%
%ADD17C,0.0920*%
D10*
X004141Y006504D02*
X004141Y006934D01*
X004456Y006934D02*
X004456Y006504D01*
X004771Y006504D02*
X004771Y006934D01*
X005086Y006934D02*
X005086Y006504D01*
X005401Y006504D02*
X005401Y006934D01*
X005716Y006934D02*
X005716Y006504D01*
X006031Y006504D02*
X006031Y006934D01*
X006345Y006934D02*
X006345Y006504D01*
X006701Y007290D02*
X007131Y007290D01*
X007131Y007605D02*
X006701Y007605D01*
X006701Y007920D02*
X007131Y007920D01*
X007131Y008235D02*
X006701Y008235D01*
X006701Y008550D02*
X007131Y008550D01*
X007131Y008865D02*
X006701Y008865D01*
X006701Y009180D02*
X007131Y009180D01*
X007131Y009495D02*
X006701Y009495D01*
X006345Y009851D02*
X006345Y010281D01*
X006031Y010281D02*
X006031Y009851D01*
X005716Y009851D02*
X005716Y010281D01*
X005401Y010281D02*
X005401Y009851D01*
X005086Y009851D02*
X005086Y010281D01*
X004771Y010281D02*
X004771Y009851D01*
X004456Y009851D02*
X004456Y010281D01*
X004141Y010281D02*
X004141Y009851D01*
X003785Y009495D02*
X003355Y009495D01*
X003355Y009180D02*
X003785Y009180D01*
X003785Y008865D02*
X003355Y008865D01*
X003355Y008550D02*
X003785Y008550D01*
X003785Y008235D02*
X003355Y008235D01*
X003355Y007920D02*
X003785Y007920D01*
X003785Y007605D02*
X003355Y007605D01*
X003355Y007290D02*
X003785Y007290D01*
D11*
X003924Y010853D02*
X003924Y011444D01*
X002924Y011444D02*
X002924Y010853D01*
X004924Y010853D02*
X004924Y011444D01*
X005924Y011444D02*
X005924Y010853D01*
X006924Y010853D02*
X006924Y011444D01*
X007924Y011444D02*
X007924Y010853D01*
X008924Y010853D02*
X008924Y011444D01*
X009924Y011444D02*
X009924Y010853D01*
X009924Y001995D02*
X009924Y001405D01*
X008924Y001405D02*
X008924Y001995D01*
X007924Y001995D02*
X007924Y001405D01*
X006924Y001405D02*
X006924Y001995D01*
X005924Y001995D02*
X005924Y001405D01*
X004924Y001405D02*
X004924Y001995D01*
X003924Y001995D02*
X003924Y001405D01*
X002924Y001405D02*
X002924Y001995D01*
D12*
X006326Y005263D03*
X006523Y005263D03*
X006719Y005263D03*
X006916Y005263D03*
X007113Y005263D03*
X007310Y005263D03*
X007507Y005263D03*
X007704Y005263D03*
X007704Y005932D03*
X007507Y005932D03*
X007310Y005932D03*
X007113Y005932D03*
X006916Y005932D03*
X006719Y005932D03*
X006523Y005932D03*
X006326Y005932D03*
D13*
X003536Y004473D03*
D14*
X003536Y003473D03*
X004536Y003473D03*
X004536Y004473D03*
X005536Y004473D03*
X005536Y003473D03*
D15*
X008486Y004318D02*
X009086Y004318D01*
X009086Y005318D02*
X008486Y005318D01*
X008486Y006318D02*
X009086Y006318D01*
X009086Y007318D02*
X008486Y007318D01*
X008486Y008318D02*
X009086Y008318D01*
X009086Y009318D02*
X008486Y009318D01*
X002331Y009318D02*
X001731Y009318D01*
X001731Y008318D02*
X002331Y008318D01*
X002331Y007318D02*
X001731Y007318D01*
X001731Y006318D02*
X002331Y006318D01*
X002331Y005318D02*
X001731Y005318D01*
X001731Y004318D02*
X002331Y004318D01*
D16*
X000912Y004810D03*
X001149Y005755D03*
X001149Y007094D03*
X000676Y007881D03*
X001149Y008747D03*
X004219Y007330D03*
X004574Y007330D03*
X005164Y007330D03*
X005637Y007330D03*
X005991Y007330D03*
X006345Y007330D03*
X005479Y008432D03*
X004968Y008432D03*
X004968Y009219D03*
X006149Y009219D03*
X007527Y008156D03*
X007999Y008550D03*
X007960Y009928D03*
X009613Y009613D03*
X010204Y009023D03*
X010558Y009023D03*
X010794Y008786D03*
X011582Y008629D03*
X011582Y008983D03*
X012172Y009023D03*
X009731Y006779D03*
X009495Y007015D03*
X009968Y006542D03*
X011345Y006031D03*
X011936Y005794D03*
X011582Y005440D03*
X011936Y004731D03*
X009495Y004023D03*
X007527Y004101D03*
X007290Y003550D03*
X006542Y003078D03*
X006031Y002684D03*
X004456Y002723D03*
X004338Y000952D03*
X005282Y000716D03*
X007330Y000952D03*
X004023Y005007D03*
X003275Y005716D03*
X005282Y005716D03*
X005755Y005676D03*
X005558Y005204D03*
X007920Y007133D03*
X002999Y011936D03*
D17*
X001625Y001625D03*
X001625Y011625D03*
X011625Y011625D03*
X011625Y001625D03*
M02*
