G75*
%MOIN*%
%OFA0B0*%
%FSLAX24Y24*%
%IPPOS*%
%LPD*%
%AMOC8*
5,1,8,0,0,1.08239X$1,22.5*
%
%ADD10C,0.0160*%
%ADD11C,0.0591*%
%ADD12R,0.0118X0.0276*%
%ADD13R,0.0740X0.0740*%
%ADD14OC8,0.0740*%
%ADD15C,0.0600*%
%ADD16C,0.0080*%
%ADD17C,0.0270*%
%ADD18C,0.0160*%
%ADD19C,0.0860*%
D10*
X004141Y006504D02*
X004141Y006934D01*
X004456Y006934D02*
X004456Y006504D01*
X004771Y006504D02*
X004771Y006934D01*
X005086Y006934D02*
X005086Y006504D01*
X005401Y006504D02*
X005401Y006934D01*
X005716Y006934D02*
X005716Y006504D01*
X006031Y006504D02*
X006031Y006934D01*
X006345Y006934D02*
X006345Y006504D01*
X006701Y007290D02*
X007131Y007290D01*
X007131Y007605D02*
X006701Y007605D01*
X006701Y007920D02*
X007131Y007920D01*
X007131Y008235D02*
X006701Y008235D01*
X006701Y008550D02*
X007131Y008550D01*
X007131Y008865D02*
X006701Y008865D01*
X006701Y009180D02*
X007131Y009180D01*
X007131Y009495D02*
X006701Y009495D01*
X006345Y009851D02*
X006345Y010281D01*
X006031Y010281D02*
X006031Y009851D01*
X005716Y009851D02*
X005716Y010281D01*
X005401Y010281D02*
X005401Y009851D01*
X005086Y009851D02*
X005086Y010281D01*
X004771Y010281D02*
X004771Y009851D01*
X004456Y009851D02*
X004456Y010281D01*
X004141Y010281D02*
X004141Y009851D01*
X003785Y009495D02*
X003355Y009495D01*
X003355Y009180D02*
X003785Y009180D01*
X003785Y008865D02*
X003355Y008865D01*
X003355Y008550D02*
X003785Y008550D01*
X003785Y008235D02*
X003355Y008235D01*
X003355Y007920D02*
X003785Y007920D01*
X003785Y007605D02*
X003355Y007605D01*
X003355Y007290D02*
X003785Y007290D01*
D11*
X003924Y010853D02*
X003924Y011444D01*
X002924Y011444D02*
X002924Y010853D01*
X004924Y010853D02*
X004924Y011444D01*
X005924Y011444D02*
X005924Y010853D01*
X006924Y010853D02*
X006924Y011444D01*
X007924Y011444D02*
X007924Y010853D01*
X008924Y010853D02*
X008924Y011444D01*
X009924Y011444D02*
X009924Y010853D01*
X009924Y001995D02*
X009924Y001405D01*
X008924Y001405D02*
X008924Y001995D01*
X007924Y001995D02*
X007924Y001405D01*
X006924Y001405D02*
X006924Y001995D01*
X005924Y001995D02*
X005924Y001405D01*
X004924Y001405D02*
X004924Y001995D01*
X003924Y001995D02*
X003924Y001405D01*
X002924Y001405D02*
X002924Y001995D01*
D12*
X006326Y005263D03*
X006523Y005263D03*
X006719Y005263D03*
X006916Y005263D03*
X007113Y005263D03*
X007310Y005263D03*
X007507Y005263D03*
X007704Y005263D03*
X007704Y005932D03*
X007507Y005932D03*
X007310Y005932D03*
X007113Y005932D03*
X006916Y005932D03*
X006719Y005932D03*
X006523Y005932D03*
X006326Y005932D03*
D13*
X003536Y004473D03*
D14*
X003536Y003473D03*
X004536Y003473D03*
X004536Y004473D03*
X005536Y004473D03*
X005536Y003473D03*
D15*
X008486Y004318D02*
X009086Y004318D01*
X009086Y005318D02*
X008486Y005318D01*
X008486Y006318D02*
X009086Y006318D01*
X009086Y007318D02*
X008486Y007318D01*
X008486Y008318D02*
X009086Y008318D01*
X009086Y009318D02*
X008486Y009318D01*
X002331Y009318D02*
X001731Y009318D01*
X001731Y008318D02*
X002331Y008318D01*
X002331Y007318D02*
X001731Y007318D01*
X001731Y006318D02*
X002331Y006318D01*
X002331Y005318D02*
X001731Y005318D01*
X001731Y004318D02*
X002331Y004318D01*
D16*
X003536Y004473D02*
X003550Y004495D01*
X003550Y007290D01*
X003570Y007290D01*
X003570Y007605D02*
X003983Y007605D01*
X003983Y007054D01*
X003944Y007015D01*
X003944Y005086D01*
X004023Y005007D01*
X004259Y004771D02*
X004534Y004495D01*
X004536Y004473D01*
X004534Y004456D01*
X004062Y003983D01*
X004062Y002448D01*
X004338Y002172D01*
X004338Y000952D01*
X004023Y000716D02*
X005282Y000716D01*
X005519Y000401D02*
X005519Y003471D01*
X005536Y003473D01*
X005007Y003275D02*
X004456Y002723D01*
X005007Y003275D02*
X005007Y004692D01*
X005046Y004692D01*
X005558Y005204D01*
X005401Y005479D02*
X005046Y005479D01*
X005046Y006660D01*
X005086Y006700D01*
X005086Y006719D01*
X005282Y006582D02*
X005282Y005716D01*
X005401Y005479D02*
X005519Y005597D01*
X005519Y005912D01*
X006306Y005912D01*
X006326Y005932D01*
X006503Y005952D02*
X006503Y006109D01*
X006306Y006306D01*
X005716Y006306D01*
X005716Y006719D01*
X006031Y006719D02*
X006031Y007015D01*
X006345Y007330D01*
X005991Y007330D02*
X006385Y007723D01*
X006385Y008865D01*
X006916Y008865D01*
X006916Y008550D02*
X007527Y008550D01*
X007527Y008156D01*
X007763Y008432D02*
X008471Y007723D01*
X009495Y007723D01*
X009495Y007015D01*
X009731Y006779D02*
X009731Y008747D01*
X008471Y008747D01*
X008078Y009141D01*
X008078Y009416D01*
X007605Y009889D01*
X007605Y010046D01*
X006345Y010046D01*
X006345Y010066D01*
X006031Y010046D02*
X006031Y010066D01*
X006031Y010046D02*
X005912Y009928D01*
X005912Y009771D01*
X005479Y009338D01*
X005479Y008432D01*
X005873Y008590D02*
X005873Y007566D01*
X005637Y007330D01*
X005401Y007448D02*
X005401Y006719D01*
X005401Y006700D01*
X005282Y006582D01*
X004574Y006582D02*
X004574Y005125D01*
X005007Y004692D01*
X004259Y004771D02*
X004259Y006582D01*
X004141Y006700D01*
X004141Y006719D01*
X004456Y006700D02*
X004456Y006719D01*
X004456Y006700D02*
X004574Y006582D01*
X004574Y007330D02*
X004574Y008905D01*
X003983Y009495D01*
X003570Y009495D01*
X003570Y009180D02*
X004062Y009180D01*
X004062Y007763D01*
X004219Y007605D01*
X004219Y007330D01*
X004731Y007763D02*
X004731Y008983D01*
X002960Y010755D01*
X002960Y011149D01*
X002924Y011149D01*
X003511Y011424D02*
X003511Y010676D01*
X004141Y010046D01*
X004141Y010066D01*
X005086Y010046D02*
X005086Y010066D01*
X005086Y010046D02*
X005204Y009928D01*
X005204Y007645D01*
X005401Y007448D01*
X005164Y007330D02*
X004731Y007763D01*
X004968Y008432D02*
X004968Y009219D01*
X005401Y010066D02*
X005401Y012448D01*
X005924Y011149D02*
X005952Y011149D01*
X006464Y010637D01*
X006464Y010440D01*
X007448Y010440D01*
X007960Y009928D01*
X007566Y009692D02*
X007566Y009338D01*
X007999Y008905D01*
X007999Y008550D01*
X007763Y008550D02*
X007763Y008432D01*
X007763Y008550D02*
X007487Y008826D01*
X007487Y009180D01*
X006916Y009180D01*
X006916Y009495D02*
X006424Y009495D01*
X006424Y009141D01*
X005873Y008590D01*
X006149Y009219D02*
X006267Y009338D01*
X006267Y009574D01*
X006345Y009653D01*
X006582Y009653D01*
X006621Y009692D01*
X007566Y009692D01*
X007094Y008235D02*
X006916Y008235D01*
X007094Y008235D02*
X007684Y007645D01*
X007684Y005952D01*
X007704Y005932D01*
X007507Y005932D02*
X007487Y005952D01*
X007487Y007527D01*
X007094Y007920D01*
X006916Y007920D01*
X006916Y007605D02*
X007094Y007605D01*
X007330Y007369D01*
X007330Y005952D01*
X007310Y005932D01*
X007113Y005932D02*
X007094Y005952D01*
X007094Y007133D01*
X006936Y007290D01*
X006916Y007290D01*
X006345Y006719D02*
X006345Y006700D01*
X006897Y006149D01*
X006897Y005952D01*
X006916Y005932D01*
X006739Y005912D02*
X006719Y005932D01*
X006739Y005912D02*
X006739Y005755D01*
X006818Y005676D01*
X007881Y005676D01*
X007881Y007094D01*
X007920Y007133D01*
X008511Y005912D02*
X010204Y005912D01*
X010204Y009023D01*
X009968Y009318D02*
X009968Y006542D01*
X011345Y006031D02*
X011345Y008235D01*
X010794Y008786D01*
X010558Y009023D02*
X010558Y004889D01*
X008078Y004889D01*
X007704Y005263D01*
X007527Y005243D02*
X007507Y005263D01*
X007527Y005243D02*
X007527Y004101D01*
X007290Y003550D02*
X007290Y005243D01*
X007310Y005263D01*
X007133Y005282D02*
X007113Y005263D01*
X007133Y005282D02*
X007133Y005440D01*
X007212Y005519D01*
X008117Y005519D01*
X008511Y005912D01*
X006916Y005263D02*
X006897Y005243D01*
X006897Y002645D01*
X005952Y001700D01*
X005924Y001700D01*
X006031Y002684D02*
X006031Y004968D01*
X006326Y005263D01*
X006523Y005263D02*
X006542Y005243D01*
X006542Y003078D01*
X007330Y001975D02*
X007330Y000952D01*
X007330Y001975D02*
X009377Y004023D01*
X009495Y004023D01*
X011582Y005440D02*
X011582Y008629D01*
X011936Y008629D02*
X011582Y008983D01*
X011936Y008629D02*
X011936Y005794D01*
X012172Y004968D02*
X012172Y009023D01*
X010401Y009613D02*
X010401Y010676D01*
X009928Y011149D01*
X009924Y011149D01*
X009613Y009613D02*
X010401Y009613D01*
X006523Y005932D02*
X006503Y005952D01*
X006464Y005676D02*
X005755Y005676D01*
X006464Y005676D02*
X006700Y005440D01*
X006700Y005282D01*
X006719Y005263D01*
X003570Y007920D02*
X002763Y007920D01*
X002763Y007054D01*
X002349Y006641D01*
X003275Y005716D01*
X002999Y005755D02*
X002999Y002487D01*
X003511Y001975D01*
X003511Y001227D01*
X004023Y000716D01*
X001149Y004318D02*
X001149Y005755D01*
X001700Y005755D02*
X002999Y005755D01*
X002349Y006641D02*
X002054Y006345D01*
X002031Y006318D01*
X001700Y005755D02*
X000912Y006542D01*
X000912Y008511D01*
X001149Y008747D01*
X001385Y008865D02*
X001385Y008550D01*
X001149Y008314D01*
X001149Y007094D01*
X000676Y007881D02*
X000676Y005046D01*
X000912Y004810D01*
X001385Y008865D02*
X003570Y008865D01*
X003511Y011424D02*
X002999Y011936D01*
X011936Y004731D02*
X012172Y004968D01*
D17*
X011936Y004731D03*
X011582Y005440D03*
X011936Y005794D03*
X011345Y006031D03*
X009968Y006542D03*
X009731Y006779D03*
X009495Y007015D03*
X007920Y007133D03*
X007527Y008156D03*
X007999Y008550D03*
X007960Y009928D03*
X009613Y009613D03*
X010204Y009023D03*
X010558Y009023D03*
X010794Y008786D03*
X011582Y008629D03*
X011582Y008983D03*
X012172Y009023D03*
X009495Y004023D03*
X007527Y004101D03*
X007290Y003550D03*
X006542Y003078D03*
X006031Y002684D03*
X004456Y002723D03*
X004338Y000952D03*
X005282Y000716D03*
X007330Y000952D03*
X004023Y005007D03*
X003275Y005716D03*
X004219Y007330D03*
X004574Y007330D03*
X005164Y007330D03*
X005637Y007330D03*
X005991Y007330D03*
X006345Y007330D03*
X005479Y008432D03*
X004968Y008432D03*
X004968Y009219D03*
X006149Y009219D03*
X002999Y011936D03*
X001149Y008747D03*
X000676Y007881D03*
X001149Y007094D03*
X001149Y005755D03*
X000912Y004810D03*
X005282Y005716D03*
X005755Y005676D03*
X005558Y005204D03*
D18*
X005519Y000401D02*
X000401Y000401D01*
X000401Y004318D01*
X001149Y004318D01*
X002031Y004318D01*
X005519Y000401D02*
X012448Y000401D01*
X012448Y004318D01*
X008786Y004318D01*
X008786Y009318D02*
X009968Y009318D01*
X012448Y009318D01*
X012448Y012448D01*
X005401Y012448D01*
X000401Y012448D01*
X000401Y009318D01*
X002031Y009318D01*
D19*
X001625Y011625D03*
X001625Y001625D03*
X011625Y001625D03*
X011625Y011625D03*
M02*
