G75*
%MOIN*%
%OFA0B0*%
%FSLAX24Y24*%
%IPPOS*%
%LPD*%
%AMOC8*
5,1,8,0,0,1.08239X$1,22.5*
%
%ADD10C,0.0000*%
%ADD11C,0.0030*%
%ADD12C,0.0050*%
%ADD13C,0.0060*%
D10*
X000125Y000125D02*
X000125Y012723D01*
X012723Y012723D01*
X012723Y000125D01*
X000125Y000125D01*
D11*
X002328Y005140D02*
X002266Y005202D01*
X002328Y005140D02*
X002389Y005140D01*
X002451Y005202D01*
X002451Y005510D01*
X002389Y005510D02*
X002513Y005510D01*
X002634Y005510D02*
X002819Y005510D01*
X002881Y005449D01*
X002881Y005325D01*
X002819Y005263D01*
X002634Y005263D01*
X002634Y005140D02*
X002634Y005510D01*
X003003Y005510D02*
X003003Y005325D01*
X003126Y005387D01*
X003188Y005387D01*
X003249Y005325D01*
X003249Y005202D01*
X003188Y005140D01*
X003064Y005140D01*
X003003Y005202D01*
X003003Y005510D02*
X003249Y005510D01*
X005652Y004644D02*
X005652Y004274D01*
X005652Y004397D02*
X005837Y004397D01*
X005899Y004459D01*
X005899Y004582D01*
X005837Y004644D01*
X005652Y004644D01*
X005775Y004397D02*
X005899Y004274D01*
X006020Y004274D02*
X006267Y004274D01*
X006144Y004274D02*
X006144Y004644D01*
X006020Y004521D01*
X006360Y006636D02*
X006360Y007006D01*
X006546Y007006D01*
X006607Y006945D01*
X006607Y006821D01*
X006546Y006760D01*
X006360Y006760D01*
X006484Y006760D02*
X006607Y006636D01*
X006729Y006636D02*
X006976Y006883D01*
X006976Y006945D01*
X006914Y007006D01*
X006791Y007006D01*
X006729Y006945D01*
X006729Y006636D02*
X006976Y006636D01*
X006858Y009786D02*
X006611Y009786D01*
X006734Y009786D02*
X006734Y010156D01*
X006611Y010033D01*
X006489Y010156D02*
X006489Y009847D01*
X006428Y009786D01*
X006304Y009786D01*
X006242Y009847D01*
X006242Y010156D01*
X009589Y012013D02*
X009651Y011951D01*
X009712Y011951D01*
X009774Y012013D01*
X009774Y012321D01*
X009712Y012321D02*
X009836Y012321D01*
X009957Y012321D02*
X010142Y012321D01*
X010204Y012260D01*
X010204Y012136D01*
X010142Y012074D01*
X009957Y012074D01*
X009957Y011951D02*
X009957Y012321D01*
X010325Y012260D02*
X010387Y012321D01*
X010511Y012321D01*
X010572Y012260D01*
X010572Y012198D01*
X010511Y012136D01*
X010572Y012074D01*
X010572Y012013D01*
X010511Y011951D01*
X010387Y011951D01*
X010325Y012013D01*
X010449Y012136D02*
X010511Y012136D01*
X010511Y002873D02*
X010325Y002687D01*
X010572Y002687D01*
X010511Y002502D02*
X010511Y002873D01*
X010204Y002811D02*
X010204Y002687D01*
X010142Y002626D01*
X009957Y002626D01*
X009957Y002502D02*
X009957Y002873D01*
X010142Y002873D01*
X010204Y002811D01*
X009836Y002873D02*
X009712Y002873D01*
X009774Y002873D02*
X009774Y002564D01*
X009712Y002502D01*
X009651Y002502D01*
X009589Y002564D01*
D12*
X000125Y000125D02*
X000125Y012723D01*
X012723Y012723D01*
X012723Y000125D01*
X000125Y000125D01*
X003865Y007015D02*
X003865Y009771D01*
X006621Y009771D01*
X006621Y007015D01*
X003865Y007015D01*
X003150Y008492D02*
X003226Y008567D01*
X003226Y008642D01*
X003150Y008717D01*
X002775Y008717D01*
X002775Y008642D02*
X002775Y008792D01*
X002775Y008952D02*
X002775Y009177D01*
X002850Y009252D01*
X003000Y009252D01*
X003075Y009177D01*
X003075Y008952D01*
X003226Y008952D02*
X002775Y008952D01*
X002925Y009413D02*
X002775Y009563D01*
X003226Y009563D01*
X003226Y009413D02*
X003226Y009713D01*
X006326Y009574D02*
X006328Y009593D01*
X006333Y009612D01*
X006343Y009628D01*
X006355Y009643D01*
X006370Y009655D01*
X006386Y009665D01*
X006405Y009670D01*
X006424Y009672D01*
X006443Y009670D01*
X006462Y009665D01*
X006478Y009655D01*
X006493Y009643D01*
X006505Y009628D01*
X006515Y009612D01*
X006520Y009593D01*
X006522Y009574D01*
X006520Y009555D01*
X006515Y009536D01*
X006505Y009520D01*
X006493Y009505D01*
X006478Y009493D01*
X006462Y009483D01*
X006443Y009478D01*
X006424Y009476D01*
X006405Y009478D01*
X006386Y009483D01*
X006370Y009493D01*
X006355Y009505D01*
X006343Y009520D01*
X006333Y009536D01*
X006328Y009555D01*
X006326Y009574D01*
X009531Y009638D02*
X009531Y009488D01*
X009606Y009413D01*
X009606Y009252D02*
X009756Y009252D01*
X009831Y009177D01*
X009831Y008952D01*
X009981Y008952D02*
X009531Y008952D01*
X009531Y009177D01*
X009606Y009252D01*
X009531Y009638D02*
X009606Y009713D01*
X009681Y009713D01*
X009981Y009413D01*
X009981Y009713D01*
X009531Y008792D02*
X009531Y008642D01*
X009531Y008717D02*
X009906Y008717D01*
X009981Y008642D01*
X009981Y008567D01*
X009906Y008492D01*
D13*
X009286Y008568D02*
X009286Y008068D01*
X009036Y007818D01*
X008536Y007818D01*
X008286Y008068D01*
X008286Y008568D01*
X008536Y008818D01*
X008286Y009068D01*
X008286Y009568D01*
X008536Y009818D01*
X009036Y009818D01*
X009286Y009568D01*
X009286Y009068D01*
X009036Y008818D01*
X009286Y008568D01*
X009036Y008818D02*
X008536Y008818D01*
X008536Y007818D02*
X008286Y007568D01*
X008286Y007068D01*
X008536Y006818D01*
X008286Y006568D01*
X008286Y006068D01*
X008536Y005818D01*
X008286Y005568D01*
X008286Y005068D01*
X008536Y004818D01*
X008286Y004568D01*
X008286Y004068D01*
X008536Y003818D01*
X009036Y003818D01*
X009286Y004068D01*
X009286Y004568D01*
X009036Y004818D01*
X008536Y004818D01*
X009036Y004818D02*
X009286Y005068D01*
X009286Y005568D01*
X009036Y005818D01*
X008536Y005818D01*
X009036Y005818D02*
X009286Y006068D01*
X009286Y006568D01*
X009036Y006818D01*
X008536Y006818D01*
X009036Y006818D02*
X009286Y007068D01*
X009286Y007568D01*
X009036Y007818D01*
X002531Y008068D02*
X002281Y007818D01*
X001781Y007818D01*
X001531Y008068D01*
X001531Y008568D01*
X001781Y008818D01*
X001531Y009068D01*
X001531Y009568D01*
X001781Y009818D01*
X002281Y009818D01*
X002531Y009568D01*
X002531Y009068D01*
X002281Y008818D01*
X002531Y008568D01*
X002531Y008068D01*
X002281Y007818D02*
X002531Y007568D01*
X002531Y007068D01*
X002281Y006818D01*
X002531Y006568D01*
X002531Y006068D01*
X002281Y005818D01*
X002531Y005568D01*
X002531Y005068D01*
X002281Y004818D01*
X002531Y004568D01*
X002531Y004068D01*
X002281Y003818D01*
X001781Y003818D01*
X001531Y004068D01*
X001531Y004568D01*
X001781Y004818D01*
X001531Y005068D01*
X001531Y005568D01*
X001781Y005818D01*
X001531Y006068D01*
X001531Y006568D01*
X001781Y006818D01*
X001531Y007068D01*
X001531Y007568D01*
X001781Y007818D01*
X001781Y006818D02*
X002281Y006818D01*
X002281Y005818D02*
X001781Y005818D01*
X001781Y004818D02*
X002281Y004818D01*
X002281Y008818D02*
X001781Y008818D01*
M02*
