G75*
%MOIN*%
%OFA0B0*%
%FSLAX24Y24*%
%IPPOS*%
%LPD*%
%AMOC8*
5,1,8,0,0,1.08239X$1,22.5*
%
%ADD10R,0.0236X0.0866*%
%ADD11C,0.0591*%
%ADD12R,0.0740X0.0740*%
%ADD13OC8,0.0740*%
%ADD14R,0.0433X0.0394*%
%ADD15C,0.0600*%
%ADD16R,0.0394X0.0394*%
%ADD17C,0.0080*%
%ADD18C,0.0270*%
%ADD19C,0.0160*%
%ADD20C,0.0860*%
D10*
X003212Y006424D03*
X003712Y006424D03*
X004212Y006424D03*
X004712Y006424D03*
X005212Y006424D03*
X005712Y006424D03*
X006212Y006424D03*
X006712Y006424D03*
X007212Y006424D03*
X007212Y009971D03*
X006712Y009971D03*
X006212Y009971D03*
X005712Y009971D03*
X005212Y009971D03*
X004712Y009971D03*
X004212Y009971D03*
X003712Y009971D03*
X003212Y009971D03*
D11*
X002924Y010853D02*
X002924Y011444D01*
X003924Y011444D02*
X003924Y010853D01*
X004924Y010853D02*
X004924Y011444D01*
X005924Y011444D02*
X005924Y010853D01*
X006924Y010853D02*
X006924Y011444D01*
X007924Y011444D02*
X007924Y010853D01*
X008924Y010853D02*
X008924Y011444D01*
X009924Y011444D02*
X009924Y010853D01*
X009924Y001995D02*
X009924Y001405D01*
X008924Y001405D02*
X008924Y001995D01*
X007924Y001995D02*
X007924Y001405D01*
X006924Y001405D02*
X006924Y001995D01*
X005924Y001995D02*
X005924Y001405D01*
X004924Y001405D02*
X004924Y001995D01*
X003924Y001995D02*
X003924Y001405D01*
X002924Y001405D02*
X002924Y001995D01*
D12*
X003536Y004473D03*
D13*
X003536Y003473D03*
X004536Y003473D03*
X004536Y004473D03*
X005536Y004473D03*
X005536Y003473D03*
D14*
X009949Y005340D03*
X009949Y006009D03*
D15*
X009086Y006318D02*
X008486Y006318D01*
X008486Y007318D02*
X009086Y007318D01*
X009086Y008318D02*
X008486Y008318D01*
X008486Y009318D02*
X009086Y009318D01*
X009086Y005318D02*
X008486Y005318D01*
X008486Y004318D02*
X009086Y004318D01*
X002331Y004318D02*
X001731Y004318D01*
X001731Y005318D02*
X002331Y005318D01*
X002331Y006318D02*
X001731Y006318D01*
X001731Y007318D02*
X002331Y007318D01*
X002331Y008318D02*
X001731Y008318D01*
X001731Y009318D02*
X002331Y009318D01*
D16*
X002408Y010204D03*
D17*
X000361Y002094D02*
X001621Y000834D01*
X004219Y000834D01*
X004338Y000952D01*
X003924Y001700D02*
X003905Y001700D01*
X003196Y000991D01*
X002527Y000991D01*
X002527Y001503D01*
X001857Y002172D01*
X000519Y002172D01*
X000519Y007054D01*
X001188Y007723D01*
X004259Y007723D01*
X004968Y008432D01*
X005479Y008432D02*
X005716Y008196D01*
X005716Y007566D01*
X005046Y007566D01*
X004928Y007448D01*
X004928Y006936D01*
X005204Y006660D01*
X005204Y006424D01*
X005212Y006424D01*
X005440Y005991D02*
X005440Y007172D01*
X005322Y007172D01*
X005164Y007330D01*
X005637Y007330D02*
X006188Y006779D01*
X006188Y006424D01*
X006212Y006424D01*
X005716Y006424D02*
X005716Y006227D01*
X006227Y005716D01*
X007212Y005716D01*
X008235Y006739D01*
X009692Y006739D01*
X009731Y006779D01*
X009495Y007015D02*
X009377Y006897D01*
X007448Y006897D01*
X007369Y006975D01*
X007054Y006975D01*
X006739Y006660D01*
X006739Y006424D01*
X006712Y006424D01*
X007212Y006424D02*
X007212Y006227D01*
X006857Y005873D01*
X006464Y005873D01*
X006464Y006897D01*
X006385Y006975D01*
X006345Y006975D01*
X005991Y007330D01*
X006345Y007330D02*
X007723Y007330D01*
X007920Y007133D01*
X007527Y007723D02*
X009259Y007723D01*
X010282Y006700D01*
X010282Y005361D01*
X009968Y005361D01*
X009949Y005340D01*
X009928Y005322D01*
X008786Y005322D01*
X008786Y005318D01*
X008747Y005322D01*
X008314Y004889D01*
X008078Y004889D01*
X008078Y004456D01*
X007960Y004338D01*
X005676Y004338D01*
X005558Y004456D01*
X005536Y004473D01*
X005519Y004495D01*
X005440Y004495D01*
X004692Y005243D01*
X002094Y005243D01*
X002054Y005282D01*
X002031Y005318D01*
X002527Y005755D02*
X001149Y005755D01*
X000912Y004810D02*
X000991Y004731D01*
X003275Y004731D01*
X003511Y004495D01*
X003536Y004473D01*
X003314Y003944D02*
X004023Y003944D01*
X004023Y005007D01*
X003550Y005440D02*
X003275Y005716D01*
X003550Y005873D02*
X003117Y006306D01*
X003212Y006424D01*
X003196Y006424D01*
X002527Y005755D01*
X003550Y005873D02*
X005125Y005873D01*
X005282Y005716D01*
X005440Y005991D02*
X005755Y005676D01*
X005637Y005282D02*
X007881Y005282D01*
X008432Y005834D01*
X009771Y005834D01*
X009928Y005991D01*
X009949Y006009D01*
X009968Y006031D01*
X009968Y006542D01*
X010440Y006779D02*
X010440Y004534D01*
X010007Y004534D01*
X009495Y004023D01*
X009928Y003786D02*
X011582Y005440D01*
X011936Y005676D02*
X012487Y005125D01*
X012487Y002172D01*
X010401Y002172D01*
X009928Y001700D01*
X009924Y001700D01*
X009653Y002408D02*
X008944Y001700D01*
X008924Y001700D01*
X009653Y002408D02*
X012330Y002408D01*
X012330Y005046D01*
X011345Y006031D01*
X011936Y005794D02*
X011936Y005676D01*
X011936Y004731D02*
X010755Y003550D01*
X007290Y003550D01*
X007527Y004101D02*
X007842Y003786D01*
X009928Y003786D01*
X007924Y001700D02*
X007920Y001700D01*
X006542Y003078D01*
X006031Y002684D02*
X005755Y002408D01*
X003668Y002408D01*
X002960Y001700D01*
X002924Y001700D01*
X004456Y002723D02*
X003708Y003471D01*
X003550Y003471D01*
X003536Y003473D01*
X003275Y003905D02*
X003314Y003944D01*
X003275Y003905D02*
X000676Y003905D01*
X000676Y006975D01*
X001031Y007330D01*
X002015Y007330D01*
X002031Y007318D01*
X001345Y006897D02*
X002960Y006897D01*
X003038Y006975D01*
X003353Y006975D01*
X003708Y006621D01*
X003708Y006424D01*
X003712Y006424D01*
X004212Y006424D02*
X004219Y006424D01*
X004219Y007330D01*
X004574Y007330D02*
X004574Y006424D01*
X004712Y006424D01*
X005712Y006424D02*
X005716Y006424D01*
X005637Y005282D02*
X005558Y005204D01*
X007172Y005440D02*
X003550Y005440D01*
X004023Y003944D02*
X004023Y003511D01*
X004534Y003511D01*
X004536Y003473D01*
X004924Y001700D02*
X004928Y001700D01*
X005637Y000991D01*
X007290Y000991D01*
X007330Y000952D01*
X007566Y000834D02*
X007566Y001188D01*
X007448Y001188D01*
X006936Y001700D01*
X006924Y001700D01*
X007566Y000834D02*
X007448Y000716D01*
X005282Y000716D01*
X007172Y005440D02*
X007723Y005991D01*
X008471Y005991D01*
X008786Y006306D01*
X008786Y006318D01*
X008786Y007318D02*
X008786Y007330D01*
X008550Y007566D01*
X006700Y007566D01*
X005597Y008668D01*
X003865Y008668D01*
X003078Y007881D01*
X000676Y007881D01*
X000361Y008275D02*
X000401Y008318D01*
X000361Y008275D02*
X000361Y002094D01*
X001345Y006897D02*
X001149Y007094D01*
X001149Y008747D02*
X003708Y008747D01*
X003708Y009968D01*
X003712Y009971D01*
X004212Y009971D02*
X004219Y010007D01*
X004219Y010558D01*
X004495Y010834D01*
X004495Y011857D01*
X007212Y011857D01*
X007920Y011149D01*
X007924Y011149D01*
X007369Y010164D02*
X010401Y010164D01*
X011582Y008983D01*
X011818Y008865D02*
X011818Y009141D01*
X011779Y009141D01*
X010479Y010440D01*
X009653Y010440D01*
X008944Y011149D01*
X008924Y011149D01*
X009653Y009928D02*
X007960Y009928D01*
X007369Y010164D02*
X007212Y010007D01*
X007212Y009971D01*
X006739Y009968D02*
X006712Y009971D01*
X006739Y009968D02*
X006739Y008786D01*
X010794Y008786D01*
X010558Y009023D02*
X009653Y009928D01*
X009613Y009613D02*
X010204Y009023D01*
X009338Y007881D02*
X010440Y006779D01*
X009338Y007881D02*
X007999Y007881D01*
X007999Y008550D01*
X007527Y008156D02*
X007527Y007723D01*
X006267Y008983D02*
X006464Y009180D01*
X006464Y011149D01*
X006924Y011149D01*
X006212Y009971D02*
X006188Y009968D01*
X006188Y009219D01*
X006149Y009219D01*
X006267Y008983D02*
X004731Y008983D01*
X004731Y009968D01*
X004712Y009971D01*
X005204Y009968D02*
X005212Y009971D01*
X005204Y009968D02*
X005204Y009219D01*
X004968Y009219D01*
X005712Y009971D02*
X005676Y010007D01*
X005676Y010519D01*
X005558Y010519D01*
X004928Y011149D01*
X004924Y011149D01*
X004416Y012015D02*
X003944Y011542D01*
X003944Y011149D01*
X003924Y011149D01*
X004416Y012015D02*
X010322Y012015D01*
X010322Y010873D01*
X012172Y009023D01*
X011818Y008865D02*
X011582Y008629D01*
X003212Y009971D02*
X003196Y009968D01*
X002566Y009338D01*
X002054Y009338D01*
X002031Y009318D01*
X002408Y010204D02*
X002408Y011936D01*
X002999Y011936D01*
D18*
X002999Y011936D03*
X004968Y009219D03*
X004968Y008432D03*
X005479Y008432D03*
X006149Y009219D03*
X007527Y008156D03*
X007999Y008550D03*
X007960Y009928D03*
X009613Y009613D03*
X010204Y009023D03*
X010558Y009023D03*
X010794Y008786D03*
X011582Y008629D03*
X011582Y008983D03*
X012172Y009023D03*
X009731Y006779D03*
X009495Y007015D03*
X009968Y006542D03*
X011345Y006031D03*
X011936Y005794D03*
X011582Y005440D03*
X011936Y004731D03*
X009495Y004023D03*
X007527Y004101D03*
X007290Y003550D03*
X006542Y003078D03*
X006031Y002684D03*
X004456Y002723D03*
X004338Y000952D03*
X005282Y000716D03*
X007330Y000952D03*
X004023Y005007D03*
X003275Y005716D03*
X004219Y007330D03*
X004574Y007330D03*
X005164Y007330D03*
X005637Y007330D03*
X005991Y007330D03*
X006345Y007330D03*
X007920Y007133D03*
X005755Y005676D03*
X005282Y005716D03*
X005558Y005204D03*
X001149Y005755D03*
X000912Y004810D03*
X001149Y007094D03*
X000676Y007881D03*
X001149Y008747D03*
D19*
X000401Y008318D02*
X000401Y012448D01*
X012448Y012448D01*
X012448Y008318D01*
X008786Y008318D01*
X002031Y008318D02*
X000401Y008318D01*
D20*
X001625Y011625D03*
X001625Y001625D03*
X011625Y001625D03*
X011625Y011625D03*
M02*
